<?xml version="1.0" encoding="UTF-8"?>
<svg width="20px" height="20px" viewBox="0 0 20 20" version="1.1" xmlns="http://www.w3.org/2000/svg" xmlns:xlink="http://www.w3.org/1999/xlink">
    <!-- Generator: Sketch 59.1 (86144) - https://sketch.com -->
    <title>Icons/Shipping/20</title>
    <desc>Created with Sketch.</desc>
    <g id="Icons/Shipping/20" stroke="none" stroke-width="1" fill="none" fill-rule="evenodd">
        <g id="Group" transform="translate(1.000000, 4.000000)" fill="#000000" fill-rule="nonzero">
            <path d="M12,0 L12,2 L16,2 L18,6 L18,11 L17,11 C17,12.1045695 16.1045695,13 15,13 C13.8954305,13 13,12.1045695 13,11 L13,11 L6,11 C6,12.1045695 5.1045695,13 4,13 C2.8954305,13 2,12.1045695 2,11 L2,11 L0,11 L0,0 L12,0 Z M4,10 C3.44771525,10 3,10.4477153 3,11 C3,11.5522847 3.44771525,12 4,12 C4.55228475,12 5,11.5522847 5,11 C5,10.4477153 4.55228475,10 4,10 Z M15,10 C14.4477153,10 14,10.4477153 14,11 C14,11.5522847 14.4477153,12 15,12 C15.5522847,12 16,11.5522847 16,11 C16,10.4477153 15.5522847,10 15,10 Z M2.03917229,10.6041358 L2.03155808,10.6441788 C2.03398319,10.6306734 2.03654388,10.617215 2.0392387,10.6038052 L2.03917229,10.6041358 Z M5.9607613,10.6038052 L5.97157774,10.6621126 L5.97157774,10.6621126 C5.96824283,10.6425184 5.96464107,10.6231115 5.9607613,10.6038052 Z M13.0391723,10.6041358 L13.0315581,10.6441788 C13.0339832,10.6306734 13.0365439,10.617215 13.0392387,10.6038052 L13.0391723,10.6041358 Z M16.9607613,10.6038052 L16.9715777,10.6621126 L16.9715777,10.6621126 C16.9682428,10.6425184 16.9646411,10.6231115 16.9607613,10.6038052 Z M2.07826005,10.4441338 L2.06997965,10.473666 C2.07265275,10.4638409 2.07539887,10.4540458 2.07821739,10.4442815 L2.07826005,10.4441338 Z M5.92178261,10.4442815 L5.94254346,10.5220963 L5.94254346,10.5220963 C5.93610919,10.4958616 5.92919636,10.4699653 5.92178261,10.4442815 Z M13.07826,10.4441338 L13.0699796,10.473666 C13.0726527,10.4638409 13.0753989,10.4540458 13.0782174,10.4442815 L13.07826,10.4441338 Z M16.9217826,10.4442815 L16.9425435,10.5220963 L16.9425435,10.5220963 C16.9361092,10.4958616 16.9291964,10.4699653 16.9217826,10.4442815 Z M2.12697014,10.2972003 L2.12258422,10.3089972 C2.12396428,10.3052489 2.12535525,10.3015058 2.12675708,10.2977681 L2.12697014,10.2972003 Z M5.87324292,10.2977681 L5.89228524,10.35082 L5.89228524,10.35082 C5.88629692,10.3333457 5.87989216,10.3154971 5.87324292,10.2977681 Z M13.1269701,10.2972003 L13.1225842,10.3089972 C13.1239643,10.3052489 13.1253552,10.3015058 13.1267571,10.2977681 L13.1269701,10.2972003 Z M16.8732429,10.2977681 L16.8922852,10.35082 L16.8922852,10.35082 C16.8862969,10.3333457 16.8798922,10.3154971 16.8732429,10.2977681 Z M11,1 L1,1 L1,10 L2.26760632,9.99992752 L2.25894714,10.0150469 C2.60256406,9.40895743 3.25352347,9 4,9 C4.74647653,9 5.39743594,9.40895743 5.74105286,10.0150469 L5.73239368,9.99992752 L5.73239368,9.99992752 L11,10 L11,1 Z M15.381966,3 L12,3 L12,10 L13.2676063,9.99992752 L13.2589471,10.0150469 C13.6025641,9.40895743 14.2535235,9 15,9 C15.7464765,9 16.3974359,9.40895743 16.7410529,10.0150469 L16.7323937,9.99992752 L16.7323937,9.99992752 L17,10 L17,8 L13,8 L13,4 L15.881,4 L15.381966,3 Z M16.381966,5 L14,5 L14,7 L17,7 L17,6.23606798 L16.882,6 L16.381966,5 Z" id="Combined-Shape"></path>
        </g>
    </g>
</svg>