<svg xmlns="http://www.w3.org/2000/svg" xmlns:xlink="http://www.w3.org/1999/xlink" viewBox="0 0 16 16"><defs><path id="a" d="M0 .98h3v3H0z"/><path id="c" d="M.014.98h3v3h-3z"/><path id="e" d="M.507.98h3v3h-3z"/></defs><g fill="none" fill-rule="evenodd"><g transform="translate(2 1.02)"><mask id="b" fill="#fff"><use xlink:href="#a"/></mask><path d="M1.5 3.98a1.5 1.5 0 100-3 1.5 1.5 0 000 3" fill="#000" mask="url(#b)"/></g><g transform="translate(11 1.02)"><mask id="d" fill="#fff"><use xlink:href="#c"/></mask><path d="M.014 2.48a1.5 1.5 0 103 0 1.5 1.5 0 00-3 0" fill="#000" mask="url(#d)"/></g><g transform="translate(6 1.02)"><mask id="f" fill="#fff"><use xlink:href="#e"/></mask><path d="M2.007 3.98a1.5 1.5 0 100-3 1.5 1.5 0 000 3" fill="#000" mask="url(#f)"/></g><path d="M3.5 9.51a1.5 1.5 0 100-3 1.5 1.5 0 000 3m7.514-1.5a1.5 1.5 0 103 0 1.5 1.5 0 00-3 0m-3.007 1.5a1.5 1.5 0 100-3 1.5 1.5 0 000 3M3.5 14.02a1.5 1.5 0 100-3 1.5 1.5 0 000 3m7.514-1.5a1.5 1.5 0 103 0 1.5 1.5 0 00-3 0m-3.007 1.5a1.5 1.5 0 100-3 1.5 1.5 0 000 3" fill="#000"/></g></svg>