<svg xmlns="http://www.w3.org/2000/svg" xmlns:xlink="http://www.w3.org/1999/xlink" viewBox="0 0 16 16"><defs><path id="a" d="M0 0h10.751v13.857H0z"/></defs><g transform="translate(3 1)" fill="none" fill-rule="evenodd"><mask id="b" fill="#fff"><use xlink:href="#a"/></mask><path d="M4.477 9.05c-.325 1.423-.644 2.796-1.338 3.88-.213.33-.427.748-.791.927-.539-2.765.586-5.092 1.03-7.417-.566-1.154-.215-3.109.997-3.33 1.755-.322 1.293 1.796.995 2.78-.164.54-.458 1.057-.414 1.649.097 1.248 1.67 1.33 2.474.686C8.583 7.306 8.916 5.53 8.803 4.07 8.633 1.849 6.116.743 3.894 1.63c-1.145.46-2.185 1.511-2.336 3.057-.079.815.093 1.465.413 1.923.048.07.215.194.24.38.05.376-.173.78-.379 1.062C.695 7.726.107 6.703.013 5.41-.2 2.467 2.215.228 5.06.02c3.036-.224 5.443 1.53 5.666 4.085.167 1.9-.509 3.811-1.578 4.84-.806.774-2.517 1.532-3.915.791-.31-.164-.447-.365-.756-.687" fill="#000" mask="url(#b)"/></g></svg>