<?xml version="1.0" encoding="UTF-8"?>
<svg width="20px" height="20px" viewBox="0 0 20 20" version="1.1" xmlns="http://www.w3.org/2000/svg" xmlns:xlink="http://www.w3.org/1999/xlink">
    <!-- Generator: Sketch 57.1 (83088) - https://sketch.com -->
    <title>Icons/Favorite/Outline/20</title>
    <desc>Created with Sketch.</desc>
    <g id="Icons/Favorite/Outline/20" stroke="none" stroke-width="1" fill="none" fill-rule="evenodd">
        <path d="M10.6999701,3.97135072 C11.6525707,2.90249559 12.8093971,2.25 14.1691533,2.25 C15.5295028,2.25 16.5216792,2.77693498 17.1688401,3.64867802 C17.5552802,4.16922314 17.7430454,4.68763303 17.7835978,4.97142823 C17.8128294,5.04936523 17.8506388,5.18060178 17.8864515,5.36255188 C18.5111586,8.5364453 16.63767,12.7871299 10.2826656,17.5386559 L10,17.75 L9.71733444,17.5386559 C3.36233003,12.7871299 1.48884143,8.5364453 2.11354853,5.36255188 C2.14936118,5.18060178 2.18717061,5.04936523 2.19369066,5.05522487 C2.25695461,4.68763303 2.44471979,4.16922314 2.8311599,3.64867802 C3.47832084,2.77693498 4.47049719,2.25 5.83084672,2.25 C7.19030417,2.25 8.34711773,2.90266783 9.29995316,3.97174886 C9.56375363,4.26773289 9.79682724,4.57973256 9.99988785,4.89500964 C10.2029633,4.579578 10.4360833,4.26744214 10.6999701,3.97135072 Z M16.2555658,9.38547267 C16.9384775,7.83604112 17.0622721,6.56160222 16.8755484,5.61293155 C16.8500948,5.48361161 16.8266116,5.40210163 16.7925161,5.28825914 C16.752261,5.05435902 16.613398,4.67096537 16.33034,4.28967883 C15.8616302,3.65831418 15.1555713,3.28333333 14.1162325,3.28333333 C13.077226,3.28333333 12.1666753,3.79691966 11.3869787,4.6717699 C11.1065938,4.98637266 10.8642891,5.32530969 10.6618705,5.66417792 C10.5413297,5.86597485 10.459797,6.0247945 10.4248725,6.10294347 L10.0019964,7.04716734 L9.5791608,6.10304418 C9.54436746,6.02521072 9.46280459,5.86641084 9.342266,5.66468669 C9.13977408,5.32581171 8.89739551,4.98683556 8.61694915,4.67217483 C7.83700878,3.797082 6.92642088,3.28333333 5.88776022,3.28333333 C4.84842145,3.28333333 4.14236255,3.65831418 3.67365272,4.28967883 C3.39059481,4.67096537 3.25173176,5.05435902 3.18906433,5.37095198 C3.17738115,5.40210163 3.15389801,5.48361161 3.12844438,5.61293155 C2.94172063,6.56160222 3.06551528,7.83604112 3.74842701,9.38547267 C4.73798704,11.6306465 6.74289092,14.0251976 10.0019964,16.51 C13.2611018,14.0251976 15.2660057,11.6306465 16.2555658,9.38547267 Z" id="FAVORITE" fill="#1E1E1E" fill-rule="nonzero"></path>
    </g>
</svg>