<?xml version="1.0" encoding="UTF-8"?>
<svg width="20px" height="20px" viewBox="0 0 20 20" version="1.1" xmlns="http://www.w3.org/2000/svg" xmlns:xlink="http://www.w3.org/1999/xlink">
    <!-- Generator: Sketch 57.1 (83088) - https://sketch.com -->
    <title>Icons/Trunkshow/20</title>
    <desc>Created with Sketch.</desc>
    <g id="Icons/Trunkshow/20" stroke="none" stroke-width="1" fill="none" fill-rule="evenodd">
        <path d="M9.99238816,10.6994949 L14.2350288,14.9421356 L9.99238816,19.1847763 L5.74974747,14.9421356 L9.99238816,10.6994949 Z M9.99238816,12.1137085 L7.16396103,14.9421356 L9.99238816,17.7705627 L12.8208153,14.9421356 L9.99238816,12.1137085 Z M5.04264069,5.74974747 L9.28528137,9.99238816 L5.04264069,14.2350288 L0.8,9.99238816 L5.04264069,5.74974747 Z M14.9421356,5.74974747 L19.1847763,9.99238816 L14.9421356,14.2350288 L10.6994949,9.99238816 L14.9421356,5.74974747 Z M5.04264069,7.16396103 L2.21421356,9.99238816 L5.04264069,12.8208153 L7.87106781,9.99238816 L5.04264069,7.16396103 Z M14.9421356,7.16396103 L12.1137085,9.99238816 L14.9421356,12.8208153 L17.7705627,9.99238816 L14.9421356,7.16396103 Z M9.99238816,0.8 L14.2350288,5.04264069 L9.99238816,9.28528137 L5.74974747,5.04264069 L9.99238816,0.8 Z M9.99238816,2.21421356 L7.16396103,5.04264069 L9.99238816,7.87106781 L12.8208153,5.04264069 L9.99238816,2.21421356 Z" id="Combined-Shape" fill="#000000" fill-rule="nonzero"></path>
    </g>
</svg>