<?xml version="1.0" encoding="UTF-8"?>
<svg width="20px" height="20px" viewBox="0 0 20 20" version="1.1" xmlns="http://www.w3.org/2000/svg" xmlns:xlink="http://www.w3.org/1999/xlink">
    <!-- Generator: Sketch 57.1 (83088) - https://sketch.com -->
    <title>Icons/Favorite/Filled/20</title>
    <desc>Created with Sketch.</desc>
    <g id="Icons/Favorite/Filled/20" stroke="none" stroke-width="1" fill="none" fill-rule="evenodd">
        <path d="M10.6999701,3.97135072 C11.6525707,2.90249559 12.8093971,2.25 14.1691533,2.25 C15.5295028,2.25 16.5216792,2.77693498 17.1688401,3.64867802 C17.5552802,4.16922314 17.7430454,4.68763303 17.7835978,4.97142823 C17.8128294,5.04936523 17.8506388,5.18060178 17.8864515,5.36255188 C18.5111586,8.5364453 16.63767,12.7871299 10.2826656,17.5386559 L10,17.75 L9.71733444,17.5386559 C3.36233003,12.7871299 1.48884143,8.5364453 2.11354853,5.36255188 C2.14936118,5.18060178 2.18717061,5.04936523 2.19369066,5.05522487 C2.25695461,4.68763303 2.44471979,4.16922314 2.8311599,3.64867802 C3.47832084,2.77693498 4.47049719,2.25 5.83084672,2.25 C7.19030417,2.25 8.34711773,2.90266783 9.29995316,3.97174886 C9.56375363,4.26773289 9.79682724,4.57973256 9.99988785,4.89500964 C10.2029633,4.579578 10.4360833,4.26744214 10.6999701,3.97135072 Z" id="FAVORITE" fill="#1E1E1E" fill-rule="nonzero"></path>
    </g>
</svg>