<?xml version="1.0" encoding="UTF-8"?>
<svg width="20px" height="20px" viewBox="0 0 20 20" version="1.1" xmlns="http://www.w3.org/2000/svg" xmlns:xlink="http://www.w3.org/1999/xlink">
    <!-- Generator: Sketch 57.1 (83088) - https://sketch.com -->
    <title>Icons/Tag/20</title>
    <desc>Created with Sketch.</desc>
    <g id="Icons/Tag/20" stroke="none" stroke-width="1" fill="none" fill-rule="evenodd">
        <path d="M14,10.5 C15.9329966,10.5 17.5,12.0670034 17.5,14 C17.5,15.9329966 15.9329966,17.5 14,17.5 C12.0670034,17.5 10.5,15.9329966 10.5,14 C10.5,12.0670034 12.0670034,10.5 14,10.5 Z M6,10.5 C7.93299662,10.5 9.5,12.0670034 9.5,14 C9.5,15.9329966 7.93299662,17.5 6,17.5 C4.06700338,17.5 2.5,15.9329966 2.5,14 C2.5,12.0670034 4.06700338,10.5 6,10.5 Z M14,11.5 C12.6192881,11.5 11.5,12.6192881 11.5,14 C11.5,15.3807119 12.6192881,16.5 14,16.5 C15.3807119,16.5 16.5,15.3807119 16.5,14 C16.5,12.6192881 15.3807119,11.5 14,11.5 Z M6,11.5 C4.61928813,11.5 3.5,12.6192881 3.5,14 C3.5,15.3807119 4.61928813,16.5 6,16.5 C7.38071187,16.5 8.5,15.3807119 8.5,14 C8.5,12.6192881 7.38071187,11.5 6,11.5 Z M6,2.5 C7.93299662,2.5 9.5,4.06700338 9.5,6 C9.5,7.93299662 7.93299662,9.5 6,9.5 C4.06700338,9.5 2.5,7.93299662 2.5,6 C2.5,4.06700338 4.06700338,2.5 6,2.5 Z M14,2.5 C15.9329966,2.5 17.5,4.06700338 17.5,6 C17.5,7.93299662 15.9329966,9.5 14,9.5 C12.0670034,9.5 10.5,7.93299662 10.5,6 C10.5,4.06700338 12.0670034,2.5 14,2.5 Z M6,3.5 C4.61928813,3.5 3.5,4.61928813 3.5,6 C3.5,7.38071187 4.61928813,8.5 6,8.5 C7.38071187,8.5 8.5,7.38071187 8.5,6 C8.5,4.61928813 7.38071187,3.5 6,3.5 Z M14,3.5 C12.6192881,3.5 11.5,4.61928813 11.5,6 C11.5,7.38071187 12.6192881,8.5 14,8.5 C15.3807119,8.5 16.5,7.38071187 16.5,6 C16.5,4.61928813 15.3807119,3.5 14,3.5 Z" id="Combined-Shape" fill="#000000" fill-rule="nonzero"></path>
    </g>
</svg>