<?xml version="1.0" encoding="UTF-8"?>
<svg width="20px" height="20px" viewBox="0 0 20 20" version="1.1" xmlns="http://www.w3.org/2000/svg" xmlns:xlink="http://www.w3.org/1999/xlink">
    <!-- Generator: Sketch 57.1 (83088) - https://sketch.com -->
    <title>Icons/Account/20</title>
    <desc>Created with Sketch.</desc>
    <g id="Icons/Account/20" stroke="none" stroke-width="1" fill="none" fill-rule="evenodd">
        <path d="M10,2 C14.418278,2 18,5.581722 18,10 C18,14.418278 14.418278,18 10,18 C5.581722,18 2,14.418278 2,10 C2,5.581722 5.581722,2 10,2 Z M10,11.6 C8.05476088,11.6 6.13511974,13.390589 6.00681352,15.7488902 C7.13924915,16.5380049 8.5156722,17 10,17 C11.4843278,17 12.8607509,16.5380049 13.993318,15.7499658 C13.8648803,13.390589 11.9452391,11.6 10,11.6 Z M10,3 C6.13400675,3 3,6.13400675 3,10 C3,11.9540075 3.8006269,13.7210185 5.09173052,14.9908829 C5.55755731,12.4521277 7.73290381,10.6 10,10.6 C12.2670962,10.6 14.4424427,12.4521277 14.908458,14.9900975 C16.1993731,13.7210185 17,11.9540075 17,10 C17,6.13400675 13.8659932,3 10,3 Z M10,4 C11.6568542,4 13,5.34314575 13,7 C13,8.65685425 11.6568542,10 10,10 C8.34314575,10 7,8.65685425 7,7 C7,5.34314575 8.34314575,4 10,4 Z M10,5 C8.8954305,5 8,5.8954305 8,7 C8,8.1045695 8.8954305,9 10,9 C11.1045695,9 12,8.1045695 12,7 C12,5.8954305 11.1045695,5 10,5 Z" id="Combined-Shape" fill="#000000" fill-rule="nonzero"></path>
    </g>
</svg>