<?xml version="1.0" encoding="UTF-8"?>
<svg width="20px" height="20px" viewBox="0 0 20 20" version="1.1" xmlns="http://www.w3.org/2000/svg" xmlns:xlink="http://www.w3.org/1999/xlink">
    <!-- Generator: Sketch 57.1 (83088) - https://sketch.com -->
    <title>Icons/Home/20</title>
    <desc>Created with Sketch.</desc>
    <g id="Icons/Home/20" stroke="none" stroke-width="1" fill="none" fill-rule="evenodd">
        <path d="M2,18 L2,7.2532833 L10,2 L18,7.2532833 L18,18 L13,18 L7,18 L2,18 Z M10,3.25 L3,7.844 L3,17 L7,17 L7,11 L7.00509269,10.8237272 C7.09633912,9.24891996 8.40231912,8 10,8 C11.6568542,8 13,9.34314575 13,11 L13,17 L17,17 L17,7.844 L10,3.25 Z M10,9 C8.93934251,9 8.06443602,9.82847683 8.00467561,10.8526061 L8,11 L8,17 L12,17 L12,11 C12,9.8954305 11.1045695,9 10,9 Z" id="Combined-Shape-Copy-2" fill="#000000" fill-rule="nonzero"></path>
    </g>
</svg>