<?xml version="1.0" encoding="UTF-8"?>
<svg width="16px" height="16px" viewBox="0 0 16 16" version="1.1" xmlns="http://www.w3.org/2000/svg" xmlns:xlink="http://www.w3.org/1999/xlink">
    <!-- Generator: Sketch 61 (89581) - https://sketch.com -->
    <title>Amazon_16</title>
    <desc>Created with Sketch.</desc>
    <g id="Page-1" stroke="none" stroke-width="1" fill="none" fill-rule="evenodd">
        <g id="Amazon_16" fill="#000000" fill-rule="nonzero">
            <path d="M8.162,1.18423789e-15 C9.18666667,1.18423789e-15 10.5266667,0.273333333 11.334,1.04933333 C12.3593333,2.00666667 12.262,3.284 12.262,4.67466667 L12.262,7.95666667 C12.262,8.944 12.6726667,9.37666667 13.0566667,9.90933333 C13.1926667,10.1006667 13.2213333,10.3293333 13.05,10.4686667 C12.6186667,10.8293333 11.854,11.4933333 11.4346667,11.868 L11.4293333,11.8633333 C11.29,11.9893333 11.088,11.9973333 10.9326667,11.9126667 C10.2313333,11.3313333 10.1073333,11.062 9.72333333,10.5086667 C8.56733333,11.6866667 7.74866667,12.04 6.25066667,12.04 C4.47733333,12.04 3.09666667,10.946 3.09666667,8.75666667 C3.09666667,7.04666667 4.024,5.884 5.34333333,5.314 C6.48666667,4.81133333 8.08333333,4.72 9.30466667,4.584 L9.30466667,4.31066667 C9.30466667,3.80866667 9.34466667,3.216 9.04933333,2.78133333 C8.79266667,2.39533333 8.3,2.23466667 7.866,2.23466667 C7.06266667,2.23466667 6.348,2.64666667 6.17266667,3.49933333 C6.13666667,3.68933333 5.99866667,3.87733333 5.80666667,3.88733333 L3.766,3.66533333 C3.59333333,3.628 3.40066667,3.488 3.45133333,3.22533333 C3.92066667,0.748 6.158,1.18423789e-15 8.162,1.18423789e-15 Z M9.306,6.27 C7.78266667,6.27 6.17266667,6.59666667 6.17266667,8.39133333 C6.17266667,9.30333333 6.64466667,9.91933333 7.454,9.91933333 C8.044,9.91933333 8.57666667,9.55466667 8.91133333,8.96066667 C9.32466667,8.23066667 9.30533333,7.548 9.30533333,6.72666667 L9.30533333,6.72666667 L9.306,6.72666667 Z M13.802,13.1886667 C11.97,14.17 9.97866667,14.6426667 8.16666667,14.6426667 C5.482,14.6426667 2.882,13.714 0.779333333,12.172 C0.594666667,12.0373333 0.458666667,12.2746667 0.612,12.4493333 C2.562,14.6666667 5.136,16 7.996,16 C10.0366667,16 12.4053333,15.1906667 14.04,13.6706667 C14.3106667,13.4193333 14.0786667,13.0406667 13.802,13.1886667 L13.802,13.1886667 Z M14.2486667,14.666 C14.188,14.8173333 14.318,14.8793333 14.4553333,14.764 C15.348,14.0173333 15.5786667,12.4533333 15.396,12.228 C15.2146667,12.004 13.6546667,11.8106667 12.7026667,12.4793333 C12.556,12.582 12.5813333,12.724 12.744,12.704 C13.2806667,12.64 14.474,12.496 14.686,12.7693333 C14.8986667,13.0426667 14.4493333,14.1653333 14.2486667,14.666 L14.2486667,14.666 Z" id="Shape"></path>
        </g>
    </g>
</svg>
