<svg width="40" height="40" viewBox="0 0 40 40" fill="none" xmlns="http://www.w3.org/2000/svg">
<g fill="none">
<path d="M39 20C39 9.50659 30.4934 1 20 1C9.50659 1 1 9.50659 1 20C1 30.4934 9.50659 39 20 39C30.4934 39 39 30.4934 39 20ZM20 40C31.0457 40 40 31.0457 40 20C40 8.95431 31.0457 0 20 0C8.95431 0 0 8.95431 0 20C0 31.0457 8.95431 40 20 40Z" fill="#191A1B"/>
<path d="M15.2928 20L23.6464 11.6465L24.3535 12.3536L16.7071 20L24.3535 27.6465L23.6464 28.3536L15.2928 20Z" fill="#191A1B"/>
</g>
</svg>