<svg width="40" height="40" viewBox="0 0 40 40" fill="none" xmlns="http://www.w3.org/2000/svg">
<g fill="none">
<path d="M39 20C39 30.4934 30.4934 39 20 39C9.50659 39 1 30.4934 1 20C1 9.50659 9.50659 1 20 1C30.4934 1 39 9.50659 39 20ZM20 0C31.0457 0 40 8.95431 40 20C40 31.0457 31.0457 40 20 40C8.95431 40 0 31.0457 0 20C0 8.95431 8.95431 0 20 0Z" fill="#CACBCC"/>
<path d="M15.2928 20L23.6464 28.3535L24.3535 27.6464L16.7071 20L24.3535 12.3535L23.6464 11.6464L15.2928 20Z" fill="#CACBCC"/>
</g>
</svg>
