<svg width="20" height="20" viewBox="0 0 20 20" xmlns="http://www.w3.org/2000/svg">
<path d="M 11.277344 9.847656 C 11.210938 9.847656 11.148438 9.847656 11.085938 9.847656 C 8.011719 9.847656 4.941406 9.847656 1.871094 9.847656 C 0.972656 9.847656 0.28125 9.339844 0.0664062 8.527344 C 0.03125 8.382812 0.0078125 8.230469 0.0078125 8.082031 C 0.00390625 5.980469 0.00390625 3.875 0.0078125 1.769531 C 0.0078125 0.777344 0.785156 0 1.78125 0 C 7.257812 0 12.738281 0 18.21875 0 C 19.222656 0 19.996094 0.773438 20 1.777344 C 20 3.859375 20 5.9375 20 8.015625 C 20 9.054688 19.265625 9.820312 18.222656 9.839844 C 17.511719 9.855469 16.800781 9.847656 16.09375 9.839844 C 16.011719 9.839844 15.917969 9.796875 15.851562 9.746094 C 15 9.121094 14.148438 8.5 13.3125 7.859375 C 12.496094 7.234375 11.441406 7.800781 11.394531 8.6875 C 11.375 9.042969 11.335938 9.398438 11.304688 9.757812 C 11.300781 9.78125 11.289062 9.804688 11.277344 9.84375 Z M 15.902344 6.136719 C 15.992188 6.21875 16.042969 6.265625 16.09375 6.316406 C 16.304688 6.515625 16.507812 6.730469 16.730469 6.917969 C 17.082031 7.210938 17.570312 7.03125 17.671875 6.589844 C 17.722656 6.363281 17.640625 6.179688 17.480469 6.027344 C 17.085938 5.640625 16.6875 5.257812 16.277344 4.863281 C 16.335938 4.8125 16.382812 4.765625 16.429688 4.722656 C 16.742188 4.433594 17.0625 4.144531 17.375 3.851562 C 17.542969 3.691406 17.617188 3.5 17.558594 3.265625 C 17.496094 3.03125 17.34375 2.886719 17.109375 2.832031 C 16.882812 2.78125 16.703125 2.871094 16.542969 3.019531 C 16.339844 3.207031 16.136719 3.394531 15.902344 3.609375 C 15.902344 3.476562 15.925781 3.390625 15.898438 3.324219 C 15.832031 3.175781 15.769531 3.007812 15.65625 2.902344 C 15.488281 2.742188 15.269531 2.734375 15.058594 2.847656 C 14.835938 2.964844 14.734375 3.15625 14.730469 3.40625 C 14.730469 4.074219 14.730469 4.746094 14.730469 5.417969 C 14.730469 5.769531 14.722656 6.121094 14.734375 6.472656 C 14.742188 6.816406 15.015625 7.070312 15.335938 7.0625 C 15.65625 7.050781 15.894531 6.796875 15.902344 6.460938 C 15.902344 6.367188 15.902344 6.277344 15.902344 6.136719 Z M 4.613281 7.054688 C 5.078125 7.035156 5.507812 6.847656 5.855469 6.480469 C 6.113281 6.203125 6.117188 5.851562 5.863281 5.609375 C 5.621094 5.378906 5.285156 5.40625 5.011719 5.660156 C 4.917969 5.746094 4.804688 5.828125 4.6875 5.859375 C 4.242188 5.96875 3.78125 5.722656 3.601562 5.300781 C 3.417969 4.878906 3.554688 4.382812 3.9375 4.128906 C 4.300781 3.882812 4.667969 3.90625 5.039062 4.121094 C 5.339844 4.300781 5.683594 4.214844 5.855469 3.9375 C 6.027344 3.648438 5.933594 3.308594 5.628906 3.113281 C 5.300781 2.90625 4.945312 2.792969 4.5625 2.78125 C 3.175781 2.742188 2.136719 3.96875 2.390625 5.34375 C 2.570312 6.34375 3.570312 7.128906 4.609375 7.054688 Z M 10.539062 4.882812 C 10.558594 5.652344 10.863281 6.25 11.472656 6.683594 C 12.277344 7.253906 13.417969 7.164062 14.042969 6.488281 C 14.300781 6.210938 14.308594 5.851562 14.066406 5.617188 C 13.824219 5.378906 13.476562 5.402344 13.195312 5.664062 C 13.109375 5.746094 13 5.828125 12.890625 5.859375 C 12.203125 6.035156 11.558594 5.371094 11.746094 4.683594 C 11.917969 4.054688 12.582031 3.777344 13.15625 4.074219 C 13.304688 4.148438 13.488281 4.210938 13.648438 4.199219 C 13.910156 4.175781 14.070312 3.988281 14.125 3.726562 C 14.171875 3.503906 14.066406 3.265625 13.847656 3.128906 C 13.144531 2.691406 12.410156 2.644531 11.683594 3.035156 C 10.945312 3.425781 10.582031 4.070312 10.542969 4.882812 Z M 7.652344 5.878906 C 7.652344 5.695312 7.652344 5.519531 7.652344 5.347656 C 7.652344 4.695312 7.660156 4.046875 7.652344 3.394531 C 7.648438 3.046875 7.394531 2.785156 7.074219 2.777344 C 6.761719 2.773438 6.488281 3.015625 6.488281 3.332031 C 6.480469 4.394531 6.480469 5.453125 6.488281 6.515625 C 6.488281 6.78125 6.6875 7.015625 6.949219 7.035156 C 7.285156 7.0625 7.625 7.0625 7.960938 7.039062 C 8.242188 7.015625 8.441406 6.746094 8.4375 6.464844 C 8.433594 6.175781 8.214844 5.929688 7.925781 5.894531 C 7.84375 5.886719 7.757812 5.882812 7.652344 5.878906 Z M 10.042969 4.921875 C 10.042969 4.414062 10.046875 3.90625 10.042969 3.398438 C 10.042969 3.035156 9.796875 2.777344 9.460938 2.777344 C 9.136719 2.78125 8.878906 3.046875 8.875 3.402344 C 8.871094 4.414062 8.871094 5.421875 8.875 6.429688 C 8.875 6.800781 9.140625 7.070312 9.476562 7.0625 C 9.808594 7.054688 10.042969 6.792969 10.046875 6.425781 C 10.046875 5.925781 10.046875 5.425781 10.046875 4.921875 Z M 10.042969 4.921875 "/>
<path d="M 16.703125 14.539062 C 17.007812 15.21875 17.304688 15.875 17.601562 16.53125 C 17.796875 16.96875 17.996094 17.40625 18.191406 17.847656 C 18.371094 18.253906 18.261719 18.546875 17.847656 18.734375 C 17.429688 18.925781 17.011719 19.113281 16.589844 19.300781 C 16.152344 19.492188 15.867188 19.382812 15.671875 18.953125 C 15.21875 17.941406 14.761719 16.925781 14.308594 15.914062 C 14.277344 15.847656 14.246094 15.785156 14.207031 15.695312 C 13.886719 15.929688 13.582031 16.152344 13.273438 16.375 C 13.042969 16.542969 12.8125 16.714844 12.582031 16.882812 C 12.441406 16.984375 12.296875 17.007812 12.144531 16.921875 C 11.988281 16.839844 11.933594 16.703125 11.945312 16.53125 C 12.011719 15.726562 12.074219 14.921875 12.136719 14.117188 C 12.207031 13.234375 12.277344 12.351562 12.347656 11.472656 C 12.398438 10.804688 12.445312 10.132812 12.507812 9.464844 C 12.535156 9.136719 12.886719 9.007812 13.167969 9.214844 C 13.667969 9.582031 14.160156 9.953125 14.65625 10.320312 C 16.023438 11.335938 17.390625 12.351562 18.75 13.375 C 18.859375 13.457031 18.957031 13.601562 18.984375 13.730469 C 19.027344 13.953125 18.886719 14.097656 18.621094 14.152344 C 18.09375 14.257812 17.566406 14.363281 17.039062 14.46875 C 16.9375 14.488281 16.835938 14.511719 16.703125 14.539062 Z M 16.703125 14.539062 "/>
<path d="M -0.0078125 10.445312 C 0.222656 10.566406 0.421875 10.6875 0.632812 10.78125 C 1.039062 10.960938 1.46875 11.019531 1.90625 11.019531 C 4.917969 11.019531 7.929688 11.019531 10.941406 11.019531 C 11.027344 11.019531 11.109375 11.019531 11.203125 11.019531 C 11.175781 11.378906 11.15625 11.714844 11.125 12.050781 C 11.121094 12.085938 11.058594 12.125 11.011719 12.148438 C 10.980469 12.164062 10.9375 12.152344 10.898438 12.152344 C 7.882812 12.152344 4.875 12.152344 1.859375 12.152344 C 0.972656 12.152344 0.292969 11.652344 0.0703125 10.84375 C 0.0351562 10.722656 0.0195312 10.59375 -0.0078125 10.449219 Z M -0.0078125 10.445312 "/>
<path d="M 17.617188 11.011719 C 18.460938 11.054688 19.269531 10.976562 19.972656 10.441406 C 20.027344 10.816406 19.777344 11.375 19.425781 11.6875 C 19.011719 12.054688 18.957031 12.058594 18.519531 11.738281 C 18.214844 11.511719 17.914062 11.285156 17.613281 11.0625 C 17.613281 11.046875 17.617188 11.03125 17.617188 11.015625 Z M 17.617188 11.011719 "/>
</svg>
