<?xml version="1.0" encoding="UTF-8"?>
<svg width="20px" height="20px" viewBox="0 0 20 20" version="1.1" xmlns="http://www.w3.org/2000/svg" xmlns:xlink="http://www.w3.org/1999/xlink">
    <!-- Generator: Sketch 56.3 (81716) - https://sketch.com -->
    <title>Icons/Clock/20</title>
    <desc>Created with Sketch.</desc>
    <g id="Icons/Clock/20" stroke="none" stroke-width="1" fill="none" fill-rule="evenodd">
        <g transform="translate(1.000000, 1.000000)" fill="#000000" fill-rule="nonzero">
            <path d="M9,18 C13.9705627,18 18,13.9705627 18,9 C18,4.02943725 13.9705627,0 9,0 C4.02943725,0 0,4.02943725 0,9 C0,13.9705627 4.02943725,18 9,18 Z M9,17 C4.581722,17 1,13.418278 1,9 C1,4.581722 4.581722,1 9,1 C13.418278,1 17,4.581722 17,9 C17,13.418278 13.418278,17 9,17 Z" id="Oval"></path>
            <path d="M8.9,4 L8.9,9.1 L14,9.1 L14,10 L8,10 L8,4 L8.9,4 Z" id="Combined-Shape"></path>
        </g>
    </g>
</svg>