<svg width="24" height="24" viewBox="0 0 24 24" fill="none" xmlns="http://www.w3.org/2000/svg">
<path fill-rule="evenodd" clip-rule="evenodd" d="M10.5998 2.87988C10.0475 2.87988 9.59977 3.3276 9.59977 3.87988V4.75988C9.59977 4.77328 9.60003 4.78661 9.60055 4.79988H6.71977C6.18957 4.79988 5.75977 5.22969 5.75977 5.75988C5.75977 6.29008 6.18957 6.71988 6.71977 6.71988H18.2398C18.77 6.71988 19.1998 6.29008 19.1998 5.75988C19.1998 5.22969 18.77 4.79988 18.2398 4.79988H15.359C15.3595 4.78661 15.3598 4.77328 15.3598 4.75988V3.87988C15.3598 3.3276 14.912 2.87988 14.3598 2.87988H10.5998ZM8.71977 7.67988C7.6152 7.67988 6.71977 8.57531 6.71977 9.67988V19.1199C6.71977 20.2245 7.6152 21.1199 8.71977 21.1199H16.2398C17.3443 21.1199 18.2398 20.2245 18.2398 19.1199V9.67988C18.2398 8.57531 17.3443 7.67988 16.2398 7.67988H8.71977ZM11.7598 17.9999V11.2799C11.7598 10.8822 12.0821 10.5599 12.4798 10.5599C12.8774 10.5599 13.1998 10.8822 13.1998 11.2799V17.9999C13.1998 18.3975 12.8774 18.7199 12.4798 18.7199C12.0821 18.7199 11.7598 18.3975 11.7598 17.9999ZM15.1198 11.2799V17.9999C15.1198 18.3975 15.4421 18.7199 15.8398 18.7199C16.2374 18.7199 16.5598 18.3975 16.5598 17.9999V11.2799C16.5598 10.8822 16.2374 10.5599 15.8398 10.5599C15.4421 10.5599 15.1198 10.8822 15.1198 11.2799ZM8.39977 17.9999V11.2799C8.39977 10.8822 8.72212 10.5599 9.11977 10.5599C9.51741 10.5599 9.83977 10.8822 9.83977 11.2799V17.9999C9.83977 18.3975 9.51741 18.7199 9.11977 18.7199C8.72212 18.7199 8.39977 18.3975 8.39977 17.9999Z" fill="#D8D8D8"/>
<mask id="mask0" mask-type="alpha" maskUnits="userSpaceOnUse" x="5" y="2" width="15" height="20">
<path fill-rule="evenodd" clip-rule="evenodd" d="M10.5998 2.87988C10.0475 2.87988 9.59977 3.3276 9.59977 3.87988V4.75988C9.59977 4.77328 9.60003 4.78661 9.60055 4.79988H6.71977C6.18957 4.79988 5.75977 5.22969 5.75977 5.75988C5.75977 6.29008 6.18957 6.71988 6.71977 6.71988H18.2398C18.77 6.71988 19.1998 6.29008 19.1998 5.75988C19.1998 5.22969 18.77 4.79988 18.2398 4.79988H15.359C15.3595 4.78661 15.3598 4.77328 15.3598 4.75988V3.87988C15.3598 3.3276 14.912 2.87988 14.3598 2.87988H10.5998ZM8.71977 7.67988C7.6152 7.67988 6.71977 8.57531 6.71977 9.67988V19.1199C6.71977 20.2245 7.6152 21.1199 8.71977 21.1199H16.2398C17.3443 21.1199 18.2398 20.2245 18.2398 19.1199V9.67988C18.2398 8.57531 17.3443 7.67988 16.2398 7.67988H8.71977ZM11.7598 17.9999V11.2799C11.7598 10.8822 12.0821 10.5599 12.4798 10.5599C12.8774 10.5599 13.1998 10.8822 13.1998 11.2799V17.9999C13.1998 18.3975 12.8774 18.7199 12.4798 18.7199C12.0821 18.7199 11.7598 18.3975 11.7598 17.9999ZM15.1198 11.2799V17.9999C15.1198 18.3975 15.4421 18.7199 15.8398 18.7199C16.2374 18.7199 16.5598 18.3975 16.5598 17.9999V11.2799C16.5598 10.8822 16.2374 10.5599 15.8398 10.5599C15.4421 10.5599 15.1198 10.8822 15.1198 11.2799ZM8.39977 17.9999V11.2799C8.39977 10.8822 8.72212 10.5599 9.11977 10.5599C9.51741 10.5599 9.83977 10.8822 9.83977 11.2799V17.9999C9.83977 18.3975 9.51741 18.7199 9.11977 18.7199C8.72212 18.7199 8.39977 18.3975 8.39977 17.9999Z" fill="white"/>
</mask>
<g mask="url(#mask0)">
<rect width="24" height="24" fill="#2870B3"/>
</g>
</svg>
