<svg width="24" height="24" viewBox="0 0 24 24" fill="none" xmlns="http://www.w3.org/2000/svg">
<path fill-rule="evenodd" clip-rule="evenodd" d="M10.5998 2.88C10.0475 2.88 9.59977 3.32772 9.59977 3.88001V4.76C9.59977 4.7734 9.60003 4.78674 9.60055 4.80001H6.71977C6.18957 4.80001 5.75977 5.22981 5.75977 5.76001C5.75977 6.2902 6.18957 6.72001 6.71977 6.72001H18.2398C18.77 6.72001 19.1998 6.2902 19.1998 5.76001C19.1998 5.22981 18.77 4.80001 18.2398 4.80001H15.359C15.3595 4.78674 15.3598 4.7734 15.3598 4.76V3.88001C15.3598 3.32772 14.912 2.88 14.3598 2.88H10.5998ZM8.71977 7.68001C7.6152 7.68001 6.71977 8.57544 6.71977 9.68V19.12C6.71977 20.2246 7.6152 21.12 8.71977 21.12H16.2398C17.3443 21.12 18.2398 20.2246 18.2398 19.12V9.68001C18.2398 8.57544 17.3443 7.68001 16.2398 7.68001H8.71977ZM11.7598 18V11.28C11.7598 10.8824 12.0821 10.56 12.4798 10.56C12.8774 10.56 13.1998 10.8824 13.1998 11.28V18C13.1998 18.3976 12.8774 18.72 12.4798 18.72C12.0821 18.72 11.7598 18.3976 11.7598 18ZM15.1198 11.28V18C15.1198 18.3976 15.4421 18.72 15.8398 18.72C16.2374 18.72 16.5598 18.3976 16.5598 18V11.28C16.5598 10.8824 16.2374 10.56 15.8398 10.56C15.4421 10.56 15.1198 10.8824 15.1198 11.28ZM8.39977 18V11.28C8.39977 10.8824 8.72212 10.56 9.11977 10.56C9.51741 10.56 9.83977 10.8824 9.83977 11.28V18C9.83977 18.3976 9.51741 18.72 9.11977 18.72C8.72212 18.72 8.39977 18.3976 8.39977 18Z" fill="#D8D8D8"/>
<mask id="mask0" mask-type="alpha" maskUnits="userSpaceOnUse" x="5" y="2" width="15" height="20">
<path fill-rule="evenodd" clip-rule="evenodd" d="M10.5998 2.88C10.0475 2.88 9.59977 3.32772 9.59977 3.88001V4.76C9.59977 4.7734 9.60003 4.78674 9.60055 4.80001H6.71977C6.18957 4.80001 5.75977 5.22981 5.75977 5.76001C5.75977 6.2902 6.18957 6.72001 6.71977 6.72001H18.2398C18.77 6.72001 19.1998 6.2902 19.1998 5.76001C19.1998 5.22981 18.77 4.80001 18.2398 4.80001H15.359C15.3595 4.78674 15.3598 4.7734 15.3598 4.76V3.88001C15.3598 3.32772 14.912 2.88 14.3598 2.88H10.5998ZM8.71977 7.68001C7.6152 7.68001 6.71977 8.57544 6.71977 9.68V19.12C6.71977 20.2246 7.6152 21.12 8.71977 21.12H16.2398C17.3443 21.12 18.2398 20.2246 18.2398 19.12V9.68001C18.2398 8.57544 17.3443 7.68001 16.2398 7.68001H8.71977ZM11.7598 18V11.28C11.7598 10.8824 12.0821 10.56 12.4798 10.56C12.8774 10.56 13.1998 10.8824 13.1998 11.28V18C13.1998 18.3976 12.8774 18.72 12.4798 18.72C12.0821 18.72 11.7598 18.3976 11.7598 18ZM15.1198 11.28V18C15.1198 18.3976 15.4421 18.72 15.8398 18.72C16.2374 18.72 16.5598 18.3976 16.5598 18V11.28C16.5598 10.8824 16.2374 10.56 15.8398 10.56C15.4421 10.56 15.1198 10.8824 15.1198 11.28ZM8.39977 18V11.28C8.39977 10.8824 8.72212 10.56 9.11977 10.56C9.51741 10.56 9.83977 10.8824 9.83977 11.28V18C9.83977 18.3976 9.51741 18.72 9.11977 18.72C8.72212 18.72 8.39977 18.3976 8.39977 18Z" fill="white"/>
</mask>
<g mask="url(#mask0)">
<rect width="24" height="24" fill="#2870B3"/>
</g>
</svg>
