<svg width="25" height="25" viewBox="0 0 25 25" fill="none" xmlns="http://www.w3.org/2000/svg">
<path fill-rule="evenodd" clip-rule="evenodd" d="M11 3C10.4477 3 10 3.44772 10 4V5H7C6.44772 5 6 5.44772 6 6C6 6.55228 6.44772 7 7 7H19C19.5523 7 20 6.55228 20 6C20 5.44772 19.5523 5 19 5H16V4C16 3.44772 15.5523 3 15 3H11ZM9 8C7.89543 8 7 8.89543 7 10V20C7 21.1046 7.89543 22 9 22H17C18.1046 22 19 21.1046 19 20V10C19 8.89543 18.1046 8 17 8H9ZM12.25 18.75V11.75C12.25 11.3358 12.5858 11 13 11C13.4142 11 13.75 11.3358 13.75 11.75V18.75C13.75 19.1642 13.4142 19.5 13 19.5C12.5858 19.5 12.25 19.1642 12.25 18.75ZM15.75 11.75V18.75C15.75 19.1642 16.0858 19.5 16.5 19.5C16.9142 19.5 17.25 19.1642 17.25 18.75V11.75C17.25 11.3358 16.9142 11 16.5 11C16.0858 11 15.75 11.3358 15.75 11.75ZM8.75 18.75V11.75C8.75 11.3358 9.08579 11 9.5 11C9.91421 11 10.25 11.3358 10.25 11.75V18.75C10.25 19.1642 9.91421 19.5 9.5 19.5C9.08579 19.5 8.75 19.1642 8.75 18.75Z" fill="#D8D8D8"/>
<mask id="mask0" mask-type="alpha" maskUnits="userSpaceOnUse" x="6" y="3" width="14" height="19">
<path fill-rule="evenodd" clip-rule="evenodd" d="M11 3C10.4477 3 10 3.44772 10 4V5H7C6.44772 5 6 5.44772 6 6C6 6.55228 6.44772 7 7 7H19C19.5523 7 20 6.55228 20 6C20 5.44772 19.5523 5 19 5H16V4C16 3.44772 15.5523 3 15 3H11ZM9 8C7.89543 8 7 8.89543 7 10V20C7 21.1046 7.89543 22 9 22H17C18.1046 22 19 21.1046 19 20V10C19 8.89543 18.1046 8 17 8H9ZM12.25 18.75V11.75C12.25 11.3358 12.5858 11 13 11C13.4142 11 13.75 11.3358 13.75 11.75V18.75C13.75 19.1642 13.4142 19.5 13 19.5C12.5858 19.5 12.25 19.1642 12.25 18.75ZM15.75 11.75V18.75C15.75 19.1642 16.0858 19.5 16.5 19.5C16.9142 19.5 17.25 19.1642 17.25 18.75V11.75C17.25 11.3358 16.9142 11 16.5 11C16.0858 11 15.75 11.3358 15.75 11.75ZM8.75 18.75V11.75C8.75 11.3358 9.08579 11 9.5 11C9.91421 11 10.25 11.3358 10.25 11.75V18.75C10.25 19.1642 9.91421 19.5 9.5 19.5C9.08579 19.5 8.75 19.1642 8.75 18.75Z" fill="white"/>
</mask>
<g mask="url(#mask0)">
<rect width="25" height="25" fill="#2870B3"/>
</g>
</svg>
