<?xml version="1.0" encoding="UTF-8"?>
<svg width="16px" height="16px" viewBox="0 0 16 16" version="1.1" xmlns="http://www.w3.org/2000/svg" xmlns:xlink="http://www.w3.org/1999/xlink">
    <!-- Generator: Sketch 59.1 (86144) - https://sketch.com -->
    <title>Icons/Deposit/Filled/16</title>
    <desc>Created with Sketch.</desc>
    <g id="Icons/Deposit/Filled/16" stroke="none" stroke-width="1" fill="none" fill-rule="evenodd">
        <g id="Icons/Deposit/16" transform="translate(1.000000, 1.000000)" fill="#1E1E1E" fill-rule="nonzero">
            <path d="M7,0 C10.8659932,0 14,3.13400675 14,7 C14,10.8659932 10.8659932,14 7,14 C3.13400675,14 0,10.8659932 0,7 C0,3.13400675 3.13400675,0 7,0 Z M7.368,1.844 L6.636,1.844 L6.636,3.056 C6.035997,3.12000032 5.53200204,3.344 5.124,3.728 C4.71599796,4.11200192 4.512,4.57199732 4.512,5.108 C4.512,6.16400528 5.10399408,6.86399828 6.288,7.208 L6.288,7.208 L6.636,7.304 L6.636,10.208 C6.235998,10.1279996 5.88200154,9.94600142 5.574,9.662 C5.26599846,9.37799858 5.10400008,9.0560018 5.088,8.696 L5.088,8.696 L4.2,8.696 C4.2400002,9.344 4.4899977,9.86599802 4.95,10.262 C5.4100023,10.658002 5.97199668,10.8959996 6.636,10.976 L6.636,10.976 L6.636,12.188 L7.368,12.188 L7.368,10.988 C8.0480034,10.9239997 8.60599782,10.7040019 9.042,10.328 C9.47800218,9.95199812 9.696,9.4840028 9.696,8.924 C9.696,8.3639972 9.54800148,7.92000164 9.252,7.592 C8.95599852,7.25599832 8.51200296,7.00000088 7.92,6.824 L7.92,6.824 L7.368,6.668 L7.368,3.812 C7.72000176,3.88400036 8.0159988,4.03799882 8.256,4.274 C8.4960012,4.51000118 8.63999976,4.81999808 8.688,5.204 L8.688,5.204 L9.576,5.204 C9.52799976,4.59599696 9.29000214,4.10600186 8.862,3.734 C8.43399786,3.36199814 7.93600284,3.1360004 7.368,3.056 L7.368,3.056 L7.368,1.844 Z M7.368,7.52 L7.644,7.604 C8.0840022,7.73200064 8.39799906,7.89799898 8.586,8.102 C8.77400094,8.30600102 8.868,8.57999828 8.868,8.924 C8.868,9.27600176 8.72400144,9.56999882 8.436,9.806 C8.14799856,10.0420012 7.79200212,10.1839998 7.368,10.232 L7.368,10.232 L7.368,7.52 Z M6.636,3.8 L6.636,6.452 L6.564,6.428 C6.13199784,6.3 5.82000096,6.13200104 5.628,5.924 C5.43599904,5.71599896 5.34,5.44400168 5.34,5.108 C5.34,4.7479982 5.45399886,4.45200116 5.682,4.22 C5.91000114,3.98799884 6.22799796,3.84800024 6.636,3.8 L6.636,3.8 Z" id="Deposit"></path>
        </g>
    </g>
</svg>