<svg xmlns="http://www.w3.org/2000/svg" viewBox="0 0 24 24"><path d="M12 22C6.477 22 2 17.523 2 12S6.477 2 12 2s10 4.477 10 10-4.477 10-10 10zm0-1a9 9 0 100-18 9 9 0 000 18zm3.157-8.257c.42.465.629 1.094.629 1.887 0 .793-.309 1.456-.926 1.989-.618.533-1.409.844-2.372.935v1.7h-1.037v-1.717c-.94-.113-1.737-.45-2.389-1.011-.651-.562-1.005-1.301-1.062-2.219h1.258c.023.51.252.966.689 1.369.436.402.937.66 1.504.773v-4.114l-.493-.136c-1.677-.487-2.516-1.479-2.516-2.975 0-.76.289-1.411.867-1.955.578-.544 1.292-.861 2.142-.952V4.6h1.037v1.717c.805.113 1.51.433 2.117.96.606.528.943 1.222 1.011 2.083h-1.258c-.068-.544-.272-.983-.612-1.317a2.451 2.451 0 00-1.258-.655v4.046l.782.221c.839.25 1.468.612 1.887 1.088zm-3.808-1.649l.102.034V7.371c-.578.068-1.028.266-1.351.595-.324.329-.485.748-.485 1.258 0 .476.136.861.408 1.156.272.295.714.533 1.326.714zm1.139 5.389c.6-.068 1.105-.27 1.513-.604.408-.334.612-.75.612-1.249 0-.487-.133-.875-.4-1.165-.266-.289-.71-.524-1.334-.705l-.391-.119v3.842z"/></svg>