<svg width="16" height="16" viewBox="0 0 16 16" fill="none" xmlns="http://www.w3.org/2000/svg">
<path id="Vector" d="M11.4464 8.89176C11.8773 8.89176 12.7236 8.89176 13.4876 8.89176C13.6871 8.89387 13.885 8.85615 14.0697 8.78083C14.2544 8.70551 14.4221 8.59411 14.563 8.45318C14.7039 8.31226 14.8152 8.14465 14.8902 7.96021C14.9652 7.77577 15.0025 7.57823 14.9999 7.3792V7.30103C14.9999 5.73765 14.9999 4.20946 14.9999 2.66562C14.9947 2.20702 14.809 1.76882 14.4828 1.44561C14.1567 1.1224 13.7162 0.940117 13.2564 0.938093C10.0046 0.938093 6.75668 0.938093 3.50485 0.938093C3.13314 0.920902 2.7688 1.04543 2.48576 1.28642C2.20272 1.5274 2.02219 1.86678 1.9808 2.23569C1.6086 4.229 1.31476 6.23793 1.02092 8.24296C0.868126 9.30606 1.56551 10.1972 2.67818 10.1425C3.62239 10.0799 4.57443 10.1425 5.51863 10.119C5.64767 10.1107 5.77699 10.1303 5.89779 10.1763C6.01859 10.2223 6.12805 10.2937 6.21873 10.3856C6.30942 10.4776 6.37921 10.5879 6.42336 10.7092C6.4675 10.8304 6.48498 10.9597 6.47459 11.0883C6.47459 11.8114 6.47459 12.3116 6.47459 12.9565C6.4687 13.2666 6.53087 13.5742 6.65676 13.8578C6.78264 14.1414 6.96919 14.394 7.20332 14.5981C7.88503 15.2508 8.5158 15.0163 8.98203 14.1447C9.94974 12.3234 10.5178 10.3144 11.4581 8.89176V1.28594" stroke="#191A1B" stroke-linecap="round" stroke-linejoin="round"/>
</svg>
