<svg width="24" height="24" viewBox="0 0 24 24" fill="none" xmlns="http://www.w3.org/2000/svg">
<mask id="mask0" mask-type="alpha" maskUnits="userSpaceOnUse" x="5" y="3" width="15" height="18">
<path fill-rule="evenodd" clip-rule="evenodd" d="M6.45078 5.40002C6.45078 4.65444 7.0552 4.05002 7.80078 4.05002H13.6552C13.7554 4.05002 13.8545 4.06117 13.9508 4.08278V6.00002C13.9508 7.24267 14.9581 8.25002 16.2008 8.25002H18.118C18.1396 8.3463 18.1508 8.44538 18.1508 8.54561V18C18.1508 18.7456 17.5464 19.35 16.8008 19.35H7.80078C7.0552 19.35 6.45078 18.7456 6.45078 18V5.40002ZM17.5144 7.35002L14.8508 4.68642V6.00002C14.8508 6.74561 15.4552 7.35002 16.2008 7.35002H17.5144ZM7.80078 3.15002C6.55814 3.15002 5.55078 4.15738 5.55078 5.40002V18C5.55078 19.2427 6.55814 20.25 7.80078 20.25H16.8008C18.0434 20.25 19.0508 19.2427 19.0508 18V8.54561C19.0508 7.94887 18.8137 7.37658 18.3918 6.95462L15.2462 3.80903C14.8242 3.38708 14.2519 3.15002 13.6552 3.15002H7.80078ZM8.55078 12.9C8.55078 12.6515 8.75225 12.45 9.00078 12.45H15.6008C15.8493 12.45 16.0508 12.6515 16.0508 12.9C16.0508 13.1486 15.8493 13.35 15.6008 13.35H9.00078C8.75225 13.35 8.55078 13.1486 8.55078 12.9ZM9.00078 14.85C8.75225 14.85 8.55078 15.0515 8.55078 15.3C8.55078 15.5486 8.75225 15.75 9.00078 15.75H15.6008C15.8493 15.75 16.0508 15.5486 16.0508 15.3C16.0508 15.0515 15.8493 14.85 15.6008 14.85H9.00078Z" fill="#454C52"/>
</mask>
<g mask="url(#mask0)">
<rect width="24" height="24" fill="#2870B3"/>
</g>
</svg>
