<svg width="24" height="24" viewBox="0 0 24 24" fill="none" xmlns="http://www.w3.org/2000/svg">
<path d="M11.4727 4.55997V15.8997C11.4727 16.2973 11.795 16.6197 12.1927 16.6197C12.5903 16.6197 12.9127 16.2973 12.9127 15.8997V4.55997C12.9127 4.16232 12.5903 3.83997 12.1927 3.83997C11.795 3.83997 11.4727 4.16232 11.4727 4.55997Z" fill="#979797"/>
<mask id="mask0" style="mask-type:alpha" maskUnits="userSpaceOnUse" x="11" y="3" width="2" height="14">
<path d="M11.4727 4.55997V15.8997C11.4727 16.2973 11.795 16.6197 12.1927 16.6197C12.5903 16.6197 12.9127 16.2973 12.9127 15.8997V4.55997C12.9127 4.16232 12.5903 3.83997 12.1927 3.83997C11.795 3.83997 11.4727 4.16232 11.4727 4.55997Z" fill="white"/>
</mask>
<g mask="url(#mask0)">
<rect width="24" height="24" fill="#2870B3"/>
</g>
<path d="M12.1909 15.5276L7.9483 11.285C7.66713 11.0038 7.21125 11.0038 6.93007 11.285C6.64889 11.5661 6.64889 12.022 6.93007 12.3032L11.6818 17.0549C11.963 17.3361 12.4189 17.3361 12.7001 17.0549L17.4518 12.3032C17.733 12.022 17.733 11.5661 17.4518 11.285C17.1706 11.0038 16.7148 11.0038 16.4336 11.285L12.1909 15.5276Z" fill="#979797"/>
<mask id="mask1" style="mask-type:alpha" maskUnits="userSpaceOnUse" x="6" y="11" width="12" height="7">
<path d="M12.1909 15.5277L7.9483 11.2851C7.66713 11.0039 7.21125 11.0039 6.93007 11.2851C6.64889 11.5663 6.64889 12.0221 6.93007 12.3033L11.6818 17.0551C11.963 17.3362 12.4189 17.3362 12.7001 17.0551L17.4518 12.3033C17.733 12.0221 17.733 11.5663 17.4518 11.2851C17.1706 11.0039 16.7148 11.0039 16.4336 11.2851L12.1909 15.5277Z" fill="white"/>
</mask>
<g mask="url(#mask1)">
<rect width="24" height="24" fill="#2870B3"/>
</g>
<path d="M4.80008 20.4H19.2001C19.5977 20.4 19.9201 20.0776 19.9201 19.68C19.9201 19.2823 19.5977 18.96 19.2001 18.96H4.80008C4.40243 18.96 4.08008 19.2823 4.08008 19.68C4.08008 20.0776 4.40243 20.4 4.80008 20.4Z" fill="#2870B3"/>
<mask id="mask2" style="mask-type:alpha" maskUnits="userSpaceOnUse" x="4" y="18" width="16" height="3">
<path d="M4.80008 20.4H19.2001C19.5977 20.4 19.9201 20.0776 19.9201 19.68C19.9201 19.2823 19.5977 18.96 19.2001 18.96H4.80008C4.40243 18.96 4.08008 19.2823 4.08008 19.68C4.08008 20.0776 4.40243 20.4 4.80008 20.4Z" fill="white"/>
</mask>
<g mask="url(#mask2)">
<rect width="24" height="24" fill="#2870B3"/>
</g>
</svg>
