<?xml version="1.0" encoding="UTF-8"?>
<svg width="16px" height="16px" viewBox="0 0 16 16" version="1.1" xmlns="http://www.w3.org/2000/svg" xmlns:xlink="http://www.w3.org/1999/xlink">
    <!-- Generator: Sketch 55.2 (78181) - https://sketchapp.com -->
    <title>Icons/Draggable/16</title>
    <desc>Created with Sketch.</desc>
    <g id="Icons/Item-Count/16" stroke="none" stroke-width="1" fill="none" fill-rule="evenodd">
        <g id="Group" transform="translate(2.000000, 2.000000)" fill="#000000">
            <path d="M1.5,7.5105 C2.328,7.5105 3,6.8395 3,6.0105 C3,5.1815 2.328,4.5105 1.5,4.5105 C0.672,4.5105 0,5.1815 0,6.0105 C0,6.8395 0.672,7.5105 1.5,7.5105" id="Fill-10"></path>
            <path d="M6.0067,7.5105 C6.8347,7.5105 7.5067,6.8395 7.5067,6.0105 C7.5067,5.1815 6.8347,4.5105 6.0067,4.5105 C5.1787,4.5105 4.5067,5.1815 4.5067,6.0105 C4.5067,6.8395 5.1787,7.5105 6.0067,7.5105" id="Fill-14"></path>
            <path d="M1.5,12.0203 C2.328,12.0203 3,11.3493 3,10.5203 C3,9.6913 2.328,9.0203 1.5,9.0203 C0.672,9.0203 0,9.6913 0,10.5203 C0,11.3493 0.672,12.0203 1.5,12.0203" id="Fill-16"></path>
            <path d="M6.0067,12.0203 C6.8347,12.0203 7.5067,11.3493 7.5067,10.5203 C7.5067,9.6913 6.8347,9.0203 6.0067,9.0203 C5.1787,9.0203 4.5067,9.6913 4.5067,10.5203 C4.5067,11.3493 5.1787,12.0203 6.0067,12.0203" id="Fill-20"></path>
            <circle id="Oval" fill-rule="nonzero" cx="1.5" cy="1.5" r="1.5"></circle>
            <circle id="Oval" fill-rule="nonzero" cx="6" cy="1.5" r="1.5"></circle>
        </g>
    </g>
</svg>