<svg width="24" height="24" fill="none" xmlns="http://www.w3.org/2000/svg"><path d="M18.738.473a2.82 2.82 0 0 0-.52.245c-.109.073-2.446 2.378-5.194 5.123L8.029 10.83l-.414 2.495c-.228 1.372-.426 2.625-.44 2.783l-.026.289.139.139a.696.696 0 0 0 .247.166c.102.026 5.211-.866 5.405-.943.139-.056 10.035-10 10.175-10.225a2.212 2.212 0 0 0-.035-2.403c-.085-.127-.646-.718-1.247-1.313C20.668.666 20.521.552 20.018.421a2.39 2.39 0 0 0-1.28.052M20 1.478c.242.123 2.195 2.074 2.325 2.322.078.15.094.241.094.54.001.301-.015.391-.094.545-.068.134-1.444 1.541-4.96 5.072L12.5 14.844l-2.099.376c-1.154.206-2.106.368-2.116.359-.009-.01.142-.982.335-2.161l.352-2.143 4.866-4.839c2.677-2.662 4.92-4.872 4.984-4.911.218-.133.356-.163.678-.151.236.009.367.036.5.104M1.878 3.011C1.146 3.261.607 3.83.42 4.548.368 4.747.36 5.867.36 13.18c0 9.271-.018 8.607.251 9.117.162.307.581.725.891.89.511.271-.154.253 9.125.253 9.261 0 8.603.018 9.107-.25a2.222 2.222 0 0 0 1.054-1.254l.112-.316v-2.807c0-2.773-.001-2.808-.083-2.92-.115-.158-.346-.266-.498-.233a.578.578 0 0 0-.398.373c-.026.093-.041 1.124-.041 2.827l-.001 2.68-.094.2c-.11.232-.337.471-.565.594l-.16.086-8.368.01c-8.365.011-8.367.011-8.587-.072a1.016 1.016 0 0 1-.42-.3c-.358-.391-.327.473-.315-8.959l.01-8.359.086-.16c.125-.233.359-.457.591-.565l.203-.094 2.68-.001c1.63 0 2.734-.015 2.817-.039.419-.12.524-.585.195-.862l-.118-.099-2.847.001c-2.841.001-2.848.001-3.109.09" fill-rule="evenodd" fill="#000"/></svg>