<svg width="48" height="48" viewBox="0 0 48 48" fill="none" xmlns="http://www.w3.org/2000/svg">
<path fill-rule="evenodd" clip-rule="evenodd" d="M0 24C0 10.7448 10.7448 0 24 0C37.2552 0 48 10.7448 48 24C48 37.2552 37.2552 48 24 48C10.7448 48 0 37.2552 0 24ZM18.1216 34.3198L23.8208 28.6206L29.5199 34.3198C30.4992 35.299 32.0868 35.299 33.066 34.3198C34.0452 33.3406 34.0452 31.7529 33.066 30.7737L27.3669 25.0746L33.0659 19.3756C34.0451 18.3963 34.0451 16.8087 33.0659 15.8295C32.0866 14.8502 30.499 14.8502 29.5198 15.8295L23.8208 21.5285L18.1218 15.8295C17.1426 14.8503 15.5549 14.8503 14.5757 15.8295C13.5965 16.8087 13.5965 18.3964 14.5757 19.3756L20.2747 25.0746L14.5756 30.7737C13.5963 31.7529 13.5963 33.3406 14.5756 34.3198C15.5548 35.299 17.1424 35.299 18.1216 34.3198Z" fill="#D0021B"/>
<mask id="mask0" mask-type="alpha" maskUnits="userSpaceOnUse" x="0" y="0" width="48" height="48">
<path fill-rule="evenodd" clip-rule="evenodd" d="M0 24C0 10.7448 10.7448 0 24 0C37.2552 0 48 10.7448 48 24C48 37.2552 37.2552 48 24 48C10.7448 48 0 37.2552 0 24ZM18.1216 34.3198L23.8208 28.6206L29.5199 34.3198C30.4992 35.299 32.0868 35.299 33.066 34.3198C34.0452 33.3406 34.0452 31.7529 33.066 30.7737L27.3669 25.0746L33.0659 19.3756C34.0451 18.3963 34.0451 16.8087 33.0659 15.8295C32.0866 14.8502 30.499 14.8502 29.5198 15.8295L23.8208 21.5285L18.1218 15.8295C17.1426 14.8503 15.5549 14.8503 14.5757 15.8295C13.5965 16.8087 13.5965 18.3964 14.5757 19.3756L20.2747 25.0746L14.5756 30.7737C13.5963 31.7529 13.5963 33.3406 14.5756 34.3198C15.5548 35.299 17.1424 35.299 18.1216 34.3198Z" fill="white"/>
</mask>
<g mask="url(#mask0)">
<rect width="48" height="48" fill="#D0021B"/>
</g>
</svg>
