<svg width="20" height="20" fill="none" xmlns="http://www.w3.org/2000/svg"><path d="M9.033 5.772A10.46 10.46 0 0 0 3.8 7.776c-.748.561-2.446 1.944-2.504 2.038-.077.127-.08.279-.008.383.092.131 2.514 2.046 2.969 2.347 1.29.854 2.671 1.382 4.26 1.628.562.087 1.805.12 2.406.064a10.428 10.428 0 0 0 4.82-1.692c.455-.301 2.877-2.216 2.969-2.347.072-.104.069-.256-.008-.383-.058-.094-1.756-1.477-2.504-2.038-1.509-1.133-3.354-1.832-5.3-2.008a14.187 14.187 0 0 0-1.867.004m1.838.829c.823.081 1.634.26 2.356.518.788.283 1.845.845 2.449 1.302.51.387 1.957 1.555 1.957 1.58 0 .048-1.954 1.588-2.342 1.845-1.199.794-2.452 1.272-3.958 1.51-.304.048-.578.06-1.333.06s-1.029-.012-1.333-.06c-1.506-.238-2.759-.716-3.958-1.51-.388-.257-2.342-1.797-2.342-1.845 0-.035 1.632-1.341 2.071-1.658 1.317-.951 2.959-1.568 4.629-1.739a13.409 13.409 0 0 1 1.804-.003m-1.289.933c-.94.17-1.702.844-1.978 1.749-.069.227-.081.335-.081.717 0 .382.012.49.081.717a2.55 2.55 0 0 0 1.679 1.679c.227.069.335.081.717.081.382 0 .49-.012.717-.081a2.55 2.55 0 0 0 1.679-1.679c.069-.227.081-.335.081-.717 0-.382-.012-.49-.081-.717a2.537 2.537 0 0 0-1.679-1.676c-.301-.088-.857-.124-1.135-.073m.828.849c.105.027.27.09.365.138.224.113.591.48.704.704a1.745 1.745 0 0 1 0 1.55c-.113.224-.48.591-.704.704a1.745 1.745 0 0 1-1.55 0c-.224-.113-.591-.48-.704-.704a1.701 1.701 0 0 1 0-1.55c.114-.225.48-.591.705-.704a1.728 1.728 0 0 1 1.184-.138" fill="#000" fill-rule="evenodd"/></svg>