<svg viewBox="0 0 24 24"><path d="M20.543 5.167C19.78 4.127 18.608 3.5 16.998 3.5c-1.611 0-2.983.782-4.115 2.064-.336.381-.63.785-.883 1.19a8.992 8.992 0 00-.884-1.19C9.984 4.282 8.613 3.5 7.002 3.5c-1.61 0-2.78.628-3.545 1.667-.457.62-.679 1.24-.753 1.675-.01.001-.054.157-.096.373-.744 3.816 1.491 8.935 9.09 14.67l.302.228.301-.228c7.6-5.735 9.835-10.854 9.091-14.67a3.49 3.49 0 00-.104-.416c-.081-.433-.303-1.032-.745-1.632zM12 20.857c-3.99-3.062-6.443-6.016-7.654-8.788-.834-1.912-.986-3.487-.757-4.662.032-.162.061-.265.077-.307a3.452 3.452 0 01.597-1.341c.58-.79 1.456-1.259 2.74-1.259 1.282 0 2.405.64 3.363 1.726a8.074 8.074 0 011.177 1.768L12 9.018l.457-1.024a8.067 8.067 0 011.177-1.768c.958-1.086 2.08-1.726 3.364-1.726 1.283 0 2.159.47 2.74 1.26a3.452 3.452 0 01.572 1.25l.024.09c.016.042.045.145.077.307.229 1.175.077 2.75-.757 4.662-1.21 2.772-3.665 5.726-7.654 8.789z"/></svg>