<svg xmlns="http://www.w3.org/2000/svg" viewBox="0 0 16 16"><path d="M8.56 3.013c.76-.862 1.685-1.388 2.772-1.388 1.087 0 1.88.425 2.397 1.128.309.42.459.838.491 1.067.024.063.054.169.082.316.5 2.56-.998 5.988-6.076 9.82L8 14.128l-.226-.17c-5.078-3.833-6.576-7.261-6.076-9.821.028-.147.058-.253.064-.248.05-.297.2-.715.51-1.135.516-.703 1.31-1.128 2.396-1.128 1.087 0 2.011.526 2.773 1.389.21.239.397.49.559.744a5.92 5.92 0 01.56-.745zm4.504 4.35c.553-1.267.654-2.308.502-3.084a2.525 2.525 0 00-.067-.265 2.063 2.063 0 00-.374-.816c-.38-.517-.952-.823-1.793-.823-.842 0-1.579.42-2.21 1.135a5.335 5.335 0 00-.78 1.17L8 5.45l-.342-.771a5.34 5.34 0 00-.78-1.17c-.631-.715-1.369-1.135-2.21-1.135s-1.413.306-1.793.823a2.211 2.211 0 00-.392.883c-.01.026-.029.092-.05.198-.15.776-.05 1.817.503 3.084C3.737 9.198 5.36 11.155 8 13.186c2.64-2.031 4.263-3.988 5.064-5.823z" fill="#1E1E1E"/></svg>