<svg width="24" height="24" viewBox="0 0 24 24" fill="none" xmlns="http://www.w3.org/2000/svg">
<path fill-rule="evenodd" clip-rule="evenodd" d="M11.9999 1C17.514 1 22 5.50779 22 11.0486C22 14.0183 20.6751 16.8424 18.427 18.7431H19.6711C19.8237 18.7431 19.9475 18.8674 19.9475 19.0208V20.5414H20.0296C20.6215 20.5414 21.1031 21.0254 21.1031 21.6201V22.9444C21.1031 23.0978 20.9793 23.2222 20.8266 23.2222H3.17337C3.02071 23.2222 2.89694 23.0978 2.89694 22.9444V21.6201C2.89694 21.0254 3.37854 20.5414 3.97043 20.5414H4.05236V19.0208C4.05236 18.8674 4.17613 18.7431 4.3288 18.7431H5.57209C3.32485 16.8427 2 14.016 2 11.0486C2 5.50779 6.4859 1 11.9999 1ZM20.5502 22.6667V21.6201C20.5502 21.3316 20.3167 21.097 20.0296 21.097H3.97044C3.68334 21.097 3.44982 21.3316 3.44982 21.6201V22.6667H20.5502ZM19.3946 20.5414H4.60522V19.2986H19.3946V20.5414ZM17.5354 18.7423C17.5356 18.7421 17.5358 18.7418 17.5361 18.7416C19.985 16.9589 21.4471 14.0831 21.4471 11.0486C21.4471 5.81405 17.2092 1.55556 11.9999 1.55556C6.79082 1.55556 2.55288 5.81405 2.55288 11.0486C2.55288 14.0691 4.00417 16.9371 6.43528 18.7205C6.4401 18.7241 6.4436 18.7286 6.4471 18.7331C6.44978 18.7366 6.45247 18.74 6.45577 18.7431H17.5347C17.535 18.7429 17.5352 18.7426 17.5354 18.7423Z" fill="#191A1B"/>
<path d="M18.427 18.7431L18.2656 18.5521L17.7441 18.9931H18.427V18.7431ZM19.9475 20.5414H19.6975V20.7914H19.9475V20.5414ZM4.05236 20.5414V20.7914H4.30236V20.5414H4.05236ZM5.57209 18.7431V18.9931H6.25489L5.73352 18.5522L5.57209 18.7431ZM20.5502 22.6667V22.9167H20.8002V22.6667H20.5502ZM3.44982 22.6667H3.19982V22.9167H3.44982V22.6667ZM4.60522 20.5414H4.35522V20.7914H4.60522V20.5414ZM19.3946 20.5414V20.7914H19.6446V20.5414H19.3946ZM4.60522 19.2986V19.0486H4.35522V19.2986H4.60522ZM19.3946 19.2986H19.6446V19.0486H19.3946V19.2986ZM17.5361 18.7416L17.6805 18.9457L17.6832 18.9437L17.5361 18.7416ZM17.5354 18.7423L17.7363 18.8912L17.7364 18.891L17.5354 18.7423ZM21.4471 11.0486H21.1971H21.4471ZM6.43528 18.7205L6.58321 18.519L6.58316 18.519L6.43528 18.7205ZM6.4471 18.7331L6.64461 18.5798L6.6446 18.5798L6.4471 18.7331ZM6.45577 18.7431L6.28628 18.9268L6.35809 18.9931H6.45577V18.7431ZM17.5347 18.7431V18.9931H17.6192L17.6864 18.9418L17.5347 18.7431ZM22.25 11.0486C22.25 5.37086 17.6532 0.75 11.9999 0.75V1.25C17.3748 1.25 21.75 5.64472 21.75 11.0486H22.25ZM18.5884 18.934C20.8923 16.9861 22.25 14.0923 22.25 11.0486H21.75C21.75 13.9442 20.4579 16.6986 18.2656 18.5521L18.5884 18.934ZM19.6711 18.4931H18.427V18.9931H19.6711V18.4931ZM20.1975 19.0208C20.1975 18.7305 19.9629 18.4931 19.6711 18.4931V18.9931C19.6845 18.9931 19.6975 19.0044 19.6975 19.0208H20.1975ZM20.1975 20.5414V19.0208H19.6975V20.5414H20.1975ZM20.0296 20.2914H19.9475V20.7914H20.0296V20.2914ZM21.3531 21.6201C21.3531 20.8884 20.7607 20.2914 20.0296 20.2914V20.7914C20.4822 20.7914 20.8531 21.1623 20.8531 21.6201H21.3531ZM21.3531 22.9444V21.6201H20.8531V22.9444H21.3531ZM20.8266 23.4722C21.1185 23.4722 21.3531 23.2348 21.3531 22.9444H20.8531C20.8531 22.9609 20.8401 22.9722 20.8266 22.9722V23.4722ZM3.17337 23.4722H20.8266V22.9722H3.17337V23.4722ZM2.64694 22.9444C2.64694 23.2348 2.8815 23.4722 3.17337 23.4722V22.9722C3.15992 22.9722 3.14694 22.9609 3.14694 22.9444H2.64694ZM2.64694 21.6201V22.9444H3.14694V21.6201H2.64694ZM3.97043 20.2914C3.23933 20.2914 2.64694 20.8884 2.64694 21.6201H3.14694C3.14694 21.1623 3.51775 20.7914 3.97043 20.7914V20.2914ZM4.05236 20.2914H3.97043V20.7914H4.05236V20.2914ZM3.80236 19.0208V20.5414H4.30236V19.0208H3.80236ZM4.3288 18.4931C4.03693 18.4931 3.80236 18.7305 3.80236 19.0208H4.30236C4.30236 19.0044 4.31534 18.9931 4.3288 18.9931V18.4931ZM5.57209 18.4931H4.3288V18.9931H5.57209V18.4931ZM1.75 11.0486C1.75 14.09 3.10759 16.9864 5.41066 18.9339L5.73352 18.5522C3.54212 16.699 2.25 13.942 2.25 11.0486H1.75ZM11.9999 0.75C6.34668 0.75 1.75 5.37086 1.75 11.0486H2.25C2.25 5.64471 6.62511 1.25 11.9999 1.25V0.75ZM20.3002 21.6201V22.6667H20.8002V21.6201H20.3002ZM20.0296 21.347C20.1775 21.347 20.3002 21.4686 20.3002 21.6201H20.8002C20.8002 21.1947 20.4559 20.847 20.0296 20.847V21.347ZM3.97044 21.347H20.0296V20.847H3.97044V21.347ZM3.69982 21.6201C3.69982 21.4686 3.82255 21.347 3.97044 21.347V20.847C3.54413 20.847 3.19982 21.1947 3.19982 21.6201H3.69982ZM3.69982 22.6667V21.6201H3.19982V22.6667H3.69982ZM20.5502 22.4167H3.44982V22.9167H20.5502V22.4167ZM4.60522 20.7914H19.3946V20.2914H4.60522V20.7914ZM4.35522 19.2986V20.5414H4.85522V19.2986H4.35522ZM19.3946 19.0486H4.60522V19.5486H19.3946V19.0486ZM19.6446 20.5414V19.2986H19.1446V20.5414H19.6446ZM17.3917 18.5375C17.3713 18.5519 17.3568 18.5668 17.3477 18.5771C17.3432 18.5823 17.3398 18.5866 17.3377 18.5893C17.3367 18.5906 17.3358 18.5918 17.3353 18.5925C17.335 18.5928 17.3348 18.5931 17.3347 18.5933C17.3345 18.5935 17.3344 18.5936 17.3344 18.5937L17.7364 18.891C17.7374 18.8896 17.7315 18.8978 17.7237 18.9067C17.7149 18.9168 17.7006 18.9314 17.6805 18.9457L17.3917 18.5375ZM21.1971 11.0486C21.1971 14.0033 19.7731 16.804 17.389 18.5394L17.6832 18.9437C20.1969 17.1139 21.6971 14.1629 21.6971 11.0486H21.1971ZM11.9999 1.80556C17.07 1.80556 21.1971 5.95098 21.1971 11.0486H21.6971C21.6971 5.67712 17.3484 1.30556 11.9999 1.30556V1.80556ZM2.80288 11.0486C2.80288 5.95097 6.93003 1.80556 11.9999 1.80556V1.30556C6.6516 1.30556 2.30288 5.67712 2.30288 11.0486H2.80288ZM6.58316 18.519C4.21639 16.7827 2.80288 13.9897 2.80288 11.0486H2.30288C2.30288 14.1486 3.79196 17.0915 6.28741 18.9221L6.58316 18.519ZM6.6446 18.5798C6.64407 18.5791 6.62055 18.5464 6.58321 18.519L6.28735 18.9221C6.27216 18.9109 6.26163 18.9001 6.25566 18.8935C6.2506 18.8878 6.24695 18.883 6.24959 18.8864L6.6446 18.5798ZM6.62525 18.5593C6.6334 18.5668 6.63912 18.5733 6.6421 18.5768C6.64464 18.5798 6.64649 18.5823 6.64461 18.5798L6.24958 18.8863C6.2503 18.8873 6.26523 18.9074 6.28628 18.9268L6.62525 18.5593ZM17.5347 18.4931H6.45577V18.9931H17.5347V18.4931ZM17.3345 18.5935C17.3335 18.5948 17.3387 18.5876 17.3455 18.5798C17.3531 18.5709 17.3655 18.5577 17.3831 18.5443L17.6864 18.9418C17.7042 18.9282 17.7169 18.9148 17.7247 18.9057C17.7286 18.9011 17.7316 18.8973 17.7334 18.895C17.7343 18.8938 17.7351 18.8928 17.7355 18.8922C17.7358 18.8918 17.7359 18.8916 17.7361 18.8914C17.7361 18.8913 17.7362 18.8913 17.7362 18.8912C17.7362 18.8912 17.7363 18.8912 17.7363 18.8912L17.3345 18.5935Z" fill="#191A1B"/>
</svg>
