<svg width="20" height="20" viewBox="0 0 20 20" fill="none" xmlns="http://www.w3.org/2000/svg">
<g clip-path="url(#clip0)">
<path fill-rule="evenodd" d="M9.49994 1C14.1869 1 18 4.83162 18 9.54127C18 12.0655 16.8738 14.466 14.9629 16.0816H16.0204C16.1502 16.0816 16.2554 16.1873 16.2554 16.3177V17.6102H16.3251C16.8282 17.6102 17.2376 18.0216 17.2376 18.5271V19.6528C17.2376 19.7832 17.1324 19.8889 17.0026 19.8889H1.99737C1.86761 19.8889 1.7624 19.7832 1.7624 19.6528V18.5271C1.7624 18.0216 2.17176 17.6102 2.67486 17.6102H2.74451V16.3177C2.74451 16.1873 2.84971 16.0816 2.97948 16.0816H4.03628C2.12613 14.4663 1 12.0636 1 9.54127C1 4.83162 4.81301 1 9.49994 1ZM16.7676 19.4167V18.5271C16.7676 18.2819 16.5692 18.0824 16.3251 18.0824H2.67484C2.43081 18.0824 2.23232 18.2819 2.23232 18.5271V19.4167H16.7676ZM15.7855 17.6102H3.21446V16.5538H15.7855V17.6102ZM14.2045 16.0816C14.205 16.0812 14.2052 16.0807 14.2057 16.0803C16.2872 14.5651 17.53 12.1206 17.53 9.54127C17.53 5.09194 13.9278 1.47222 9.49992 1.47222C5.07217 1.47222 1.46992 5.09194 1.46992 9.54127C1.46992 12.1088 2.70352 14.5465 4.76996 16.0625C4.77406 16.0655 4.77703 16.0693 4.78 16.0731C4.78228 16.0761 4.78457 16.079 4.78737 16.0816H14.2045Z" fill="#191A1B"/>
<path d="M14.9629 16.0816L14.8015 15.8907L14.28 16.3316H14.9629V16.0816ZM16.2554 17.6102H16.0054V17.8602H16.2554V17.6102ZM2.74451 17.6102V17.8602H2.99451V17.6102H2.74451ZM4.03628 16.0816V16.3316H4.71907L4.19771 15.8907L4.03628 16.0816ZM16.7676 19.4167V19.6667H17.0176V19.4167H16.7676ZM2.23232 19.4167H1.98232V19.6667H2.23232V19.4167ZM3.21446 17.6102H2.96446V17.8602H3.21446V17.6102ZM15.7855 17.6102V17.8602H16.0355V17.6102H15.7855ZM3.21446 16.5538V16.3038H2.96446V16.5538H3.21446ZM15.7855 16.5538H16.0355V16.3038H15.7855V16.5538ZM14.2057 16.0803L14.3496 16.2848L14.3528 16.2825L14.2057 16.0803ZM14.2045 16.0816V16.3316H14.2885L14.3555 16.2808L14.2045 16.0816ZM17.53 9.54127H17.28H17.53ZM4.76996 16.0625L4.91787 15.8609L4.91784 15.8609L4.76996 16.0625ZM4.78 16.0731L4.58249 16.2264V16.2264L4.78 16.0731ZM4.78737 16.0816L4.61789 16.2654L4.68969 16.3316H4.78737V16.0816ZM18.25 9.54127C18.25 4.69469 14.3261 0.75 9.49994 0.75V1.25C14.0477 1.25 17.75 4.96855 17.75 9.54127H18.25ZM15.1243 16.2725C17.0911 14.6097 18.25 12.1396 18.25 9.54127H17.75C17.75 11.9915 16.6566 14.3223 14.8015 15.8907L15.1243 16.2725ZM16.0204 15.8316H14.9629V16.3316H16.0204V15.8316ZM16.5054 16.3177C16.5054 16.0504 16.2894 15.8316 16.0204 15.8316V16.3316C16.011 16.3316 16.0054 16.3242 16.0054 16.3177H16.5054ZM16.5054 17.6102V16.3177H16.0054V17.6102H16.5054ZM16.3251 17.3602H16.2554V17.8602H16.3251V17.3602ZM17.4876 18.5271C17.4876 17.8846 16.9674 17.3602 16.3251 17.3602V17.8602C16.689 17.8602 16.9876 18.1585 16.9876 18.5271H17.4876ZM17.4876 19.6528V18.5271H16.9876V19.6528H17.4876ZM17.0026 20.1389C17.2716 20.1389 17.4876 19.9201 17.4876 19.6528H16.9876C16.9876 19.6462 16.9932 19.6389 17.0026 19.6389V20.1389ZM1.99737 20.1389H17.0026V19.6389H1.99737V20.1389ZM1.5124 19.6528C1.5124 19.9201 1.7284 20.1389 1.99737 20.1389V19.6389C2.00681 19.6389 2.0124 19.6462 2.0124 19.6528H1.5124ZM1.5124 18.5271V19.6528H2.0124V18.5271H1.5124ZM2.67486 17.3602C2.03255 17.3602 1.5124 17.8846 1.5124 18.5271H2.0124C2.0124 18.1585 2.31097 17.8602 2.67486 17.8602V17.3602ZM2.74451 17.3602H2.67486V17.8602H2.74451V17.3602ZM2.49451 16.3177V17.6102H2.99451V16.3177H2.49451ZM2.97948 15.8316C2.7105 15.8316 2.49451 16.0504 2.49451 16.3177H2.99451C2.99451 16.3242 2.98892 16.3316 2.97948 16.3316V15.8316ZM4.03628 15.8316H2.97948V16.3316H4.03628V15.8316ZM0.75 9.54127C0.75 12.1376 1.90886 14.61 3.87485 16.2725L4.19771 15.8907C2.34339 14.3226 1.25 11.9896 1.25 9.54127H0.75ZM9.49994 0.75C4.6738 0.75 0.75 4.69469 0.75 9.54127H1.25C1.25 4.96854 4.95223 1.25 9.49994 1.25V0.75ZM16.5176 18.5271V19.4167H17.0176V18.5271H16.5176ZM16.3251 18.3324C16.4299 18.3324 16.5176 18.4188 16.5176 18.5271H17.0176C17.0176 18.145 16.7084 17.8324 16.3251 17.8324V18.3324ZM2.67484 18.3324H16.3251V17.8324H2.67484V18.3324ZM2.48232 18.5271C2.48232 18.4188 2.57002 18.3324 2.67484 18.3324V17.8324C2.2916 17.8324 1.98232 18.145 1.98232 18.5271H2.48232ZM2.48232 19.4167V18.5271H1.98232V19.4167H2.48232ZM16.7676 19.1667H2.23232V19.6667H16.7676V19.1667ZM3.21446 17.8602H15.7855V17.3602H3.21446V17.8602ZM2.96446 16.5538V17.6102H3.46446V16.5538H2.96446ZM15.7855 16.3038H3.21446V16.8038H15.7855V16.3038ZM16.0355 17.6102V16.5538H15.5355V17.6102H16.0355ZM14.0618 15.8759C14.0417 15.89 14.0274 15.9045 14.0182 15.9148C14.0137 15.9199 14.0103 15.9242 14.0081 15.927C14.006 15.9297 14.0044 15.9319 14.0043 15.932C14.0037 15.9328 14.005 15.931 14.0064 15.9293C14.008 15.9272 14.0108 15.9235 14.0146 15.919C14.0223 15.9101 14.0351 15.8963 14.0535 15.8824L14.3555 16.2808C14.3741 16.2667 14.3872 16.2527 14.395 16.2435C14.3989 16.239 14.4018 16.2352 14.4035 16.233C14.405 16.2311 14.4064 16.2292 14.4059 16.2299C14.4058 16.23 14.4054 16.2305 14.4048 16.2313C14.4043 16.232 14.4034 16.2332 14.4023 16.2345C14.4002 16.2372 14.3968 16.2415 14.3924 16.2464C14.3835 16.2565 14.3694 16.2708 14.3495 16.2848L14.0618 15.8759ZM17.28 9.54127C17.28 12.0408 16.0753 14.4101 14.0585 15.8782L14.3528 16.2825C16.4991 14.7201 17.78 12.2004 17.78 9.54127H17.28ZM9.49992 1.72222C13.7886 1.72222 17.28 5.22887 17.28 9.54127H17.78C17.78 4.95501 14.067 1.22222 9.49992 1.22222V1.72222ZM1.71992 9.54127C1.71992 5.22887 5.21138 1.72222 9.49992 1.72222V1.22222C4.93295 1.22222 1.21992 4.95501 1.21992 9.54127H1.71992ZM4.91784 15.8609C2.91573 14.3922 1.71992 12.0293 1.71992 9.54127H1.21992C1.21992 12.1882 2.4913 14.7009 4.62209 16.264L4.91784 15.8609ZM4.97752 15.9199C4.97693 15.9191 4.97004 15.9101 4.96144 15.9005C4.95193 15.8899 4.93754 15.8753 4.91787 15.8609L4.62206 16.264C4.60648 16.2526 4.59562 16.2415 4.58937 16.2345C4.58402 16.2285 4.5801 16.2233 4.58249 16.2264L4.97752 15.9199ZM4.95686 15.8978C4.96524 15.9056 4.97117 15.9123 4.97437 15.916C4.97713 15.9193 4.97918 15.922 4.97752 15.9199L4.58249 16.2264C4.58284 16.2268 4.59735 16.2464 4.61789 16.2654L4.95686 15.8978ZM14.2045 15.8316H4.78737V16.3316H14.2045V15.8316Z" fill="#191A1B"/>
</g>
<defs>
<clipPath id="clip0">
<path d="M0 0H20V20H0V0Z" fill="white"/>
</clipPath>
</defs>
</svg>
