<svg width="48" height="48" viewBox="0 0 48 48" fill="none" xmlns="http://www.w3.org/2000/svg">
<path d="M38.3782 14.9263L35.0066 11.5546C34.2604 10.815 33.2522 10.4 32.2016 10.4H16.1366C15.0882 10.4 14.0753 10.8179 13.3316 11.5546L9.9599 14.9263H1.60156V33.0384H6.1349C7.38156 33.0384 8.3874 32.0325 8.39448 30.7929H9.03906L15.0316 36.2046C17.2203 37.9825 20.2591 38.025 22.5116 36.4738C23.397 37.2388 24.3532 37.6 25.4228 37.6C26.712 37.6 27.9232 37.0759 28.8795 35.9C30.4449 36.5163 32.2936 36.0842 33.4128 34.71L35.2687 32.4221C35.6653 31.9334 35.9132 31.3738 36.0407 30.7929H40.142C40.1491 32.0325 41.162 33.0384 42.4016 33.0384H46.9349V14.9263H38.3782ZM5.00156 30.7717C4.37823 30.7717 3.86823 30.2617 3.86823 29.6384C3.86823 29.015 4.37823 28.505 5.00156 28.505C5.6249 28.505 6.1349 29.015 6.1349 29.6384C6.1349 30.2688 5.6249 30.7717 5.00156 30.7717ZM32.6266 30.2829L30.7778 32.5638C30.5795 32.8046 30.2253 32.8471 29.9774 32.6488L28.2845 31.2746L26.1595 33.86C25.7345 34.3771 25.097 34.2 24.8845 34.03L22.2778 31.7988L21.1728 33.1588C20.1882 34.37 18.3961 34.5542 17.2557 33.6263L10.3636 27.3929H8.40156V18.3192H11.3695L15.7399 13.9559C15.8816 13.8992 16.002 13.8496 16.1436 13.7929H20.1599L17.4186 16.3075C15.3361 18.2129 15.2157 21.4288 17.107 23.4829C18.1553 24.6304 21.442 26.4013 24.2966 23.7946L24.8774 23.2634L32.5416 29.4825C32.7824 29.6809 32.8178 30.0421 32.6266 30.2829ZM40.1349 27.3929H35.2332C35.0703 27.1946 34.8862 27.0104 34.6878 26.8475L27.4132 20.94L28.2987 20.1325C28.7591 19.7075 28.7945 18.9921 28.3695 18.5317L27.5974 17.7029C27.1724 17.2425 26.457 17.2142 25.9966 17.6321L22.0866 21.2163C21.4136 21.8325 20.2661 21.8821 19.6357 21.2163C18.977 20.515 19.0336 19.4384 19.7207 18.815L24.3674 14.5579C24.8916 14.0763 25.5716 13.8142 26.2799 13.8142L32.2086 13.8C32.3574 13.8 32.4991 13.8567 32.5982 13.9629L36.9687 18.3263H40.1349V27.3929ZM43.5349 30.7717C42.9116 30.7717 42.4016 30.2617 42.4016 29.6384C42.4016 29.015 42.9116 28.505 43.5349 28.505C44.1582 28.505 44.6682 29.015 44.6682 29.6384C44.6682 30.2688 44.1582 30.7717 43.5349 30.7717Z" fill="#2870B3"/>
</svg>
