<svg width="16" height="16" viewBox="0 0 16 16" fill="none" xmlns="http://www.w3.org/2000/svg">
<path id="Vector" d="M4.41521 7.52381C3.98476 7.52381 3.13951 7.52381 2.37644 7.52381C2.17831 7.52226 1.98183 7.55992 1.79838 7.63461C1.61493 7.7093 1.44815 7.81953 1.30768 7.95894C1.16721 8.09835 1.05584 8.26415 0.980022 8.44677C0.904201 8.62939 0.865431 8.82519 0.865954 9.02286V9.11655C0.88552 10.6585 0.850302 12.1888 0.865954 13.7503C0.873162 14.2097 1.0617 14.6477 1.39065 14.9693C1.7196 15.2909 2.16241 15.4701 2.62297 15.468C5.867 15.468 9.11494 15.468 12.3629 15.468C12.7335 15.4841 13.0964 15.3593 13.3783 15.1187C13.6601 14.8781 13.8399 14.5397 13.8812 14.1719C14.2725 12.181 14.5503 10.1745 14.8399 8.16793C14.9965 7.10611 14.2999 6.21605 13.1886 6.2707C12.2455 6.33316 11.2946 6.2707 10.3515 6.29413C10.2226 6.30238 10.0935 6.28288 9.97281 6.23692C9.85215 6.19097 9.74282 6.11965 9.65224 6.02781C9.56166 5.93597 9.49196 5.82576 9.44787 5.70466C9.40377 5.58356 9.38632 5.45442 9.39669 5.32599C9.39669 4.6038 9.39669 4.10802 9.39669 3.45999C9.402 3.15094 9.33962 2.84445 9.21391 2.56193C9.08819 2.27942 8.90217 2.02769 8.66884 1.82432C7.98403 1.17629 7.35401 1.41052 6.88834 2.28106C5.91787 4.09631 5.3622 6.10675 4.41521 7.52381ZM4.41521 7.52381V15.1205" stroke="#191A1B" stroke-linecap="round" stroke-linejoin="round"/>
</svg>
