<?xml version="1.0" encoding="UTF-8"?>
<svg width="24px" height="24px" viewBox="0 0 24 24" version="1.1" xmlns="http://www.w3.org/2000/svg" xmlns:xlink="http://www.w3.org/1999/xlink">
    <!-- Generator: Sketch 55.2 (78181) - https://sketchapp.com -->
    <title>Icons/Location/24</title>
    <desc>Created with Sketch.</desc>
    <g id="Icons/Location/24" stroke="none" stroke-width="1" fill="none" fill-rule="evenodd">
        <g transform="translate(5.000000, 2.000000)" fill="#000000" fill-rule="nonzero" id="Combined-Shape">
            <path d="M10.5,7 C10.5,8.93274854 8.93242114,10.5 6.99926885,10.5 C5.06611657,10.5 3.5,8.93274854 3.5,7 C3.5,5.06725146 5.06611657,3.5 6.99926885,3.5 C8.93242114,3.5 10.5,5.06725146 10.5,7 Z M9.5,7 C9.5,5.61958298 8.38018314,4.5 6.99926885,4.5 C5.61876266,4.5 4.5,5.6191748 4.5,7 C4.5,8.3808252 5.61876266,9.5 6.99926885,9.5 C8.38018314,9.5 9.5,8.38041702 9.5,7 Z M14,6.86146783 C14,8.12085117 13.6481013,9.2971028 13.0443038,10.3120541 L7,20 L0.956962025,10.3120541 C0.353164557,9.2971028 0,8.12085117 0,6.86146783 C0,3.07215088 3.13417722,0 7,0 C10.8670886,0 14,3.07215088 14,6.86146783 Z M7.00010738,18.110697 L12.1848843,9.80078296 C12.7164408,8.90726499 13,7.90390943 13,6.86146783 C13,3.62850193 10.3187639,1 7,1 C3.68203742,1 1,3.62895907 1,6.86146783 C1,7.90269326 1.28411431,8.90607025 1.80542951,9.78280659 L7.00010738,18.110697 Z"></path>
        </g>
    </g>
</svg>