<svg width="288" height="31" viewBox="0 0 288 31" fill="none" xmlns="http://www.w3.org/2000/svg">
<path fill-rule="evenodd" clip-rule="evenodd" d="M134.218 8.5C134.218 13.2679 130.516 17 125.748 17C120.98 17 117.279 13.2679 117.279 8.5C117.279 3.73208 120.98 0 125.748 0C130.516 0 134.218 3.73208 134.218 8.5ZM44.1604 8.48477C44.1604 13.3289 40.3369 17 35.6147 17C31.0295 17 27.1147 13.3289 27.1147 8.48477C27.1147 3.64068 31.0905 0.0152362 35.6147 0.0152362C40.3826 0.0152362 44.1604 3.64068 44.1604 8.48477ZM9.58154 16.802L3.32079 5.19445C3.06183 4.75269 2.89427 4.32617 2.78763 4.02151H2.55914V16.741H0.030466L0 0.243732H3.38172L8.5 9.76434C8.85036 10.4346 9.26165 11.2419 9.49014 11.8208H9.68817C9.9093 11.2606 10.3302 10.4864 10.7022 9.80194L10.7392 9.73388L15.8271 0.243732H19.1783L19.1479 16.741H16.6192V4.02151H16.3907C16.2841 4.32617 16.086 4.75269 15.8423 5.19445L9.58154 16.802ZM35.6299 14.517C32.6443 14.517 29.8414 12.4301 29.8414 8.5C29.8414 4.56989 32.6443 2.48297 35.6299 2.48297C38.6156 2.48297 41.4185 4.56989 41.4185 8.5C41.4185 12.4301 38.6156 14.517 35.6299 14.517ZM58.2662 16.741C63.3997 16.741 67.3298 13.7706 67.3298 8.5C67.3298 3.2294 63.3997 0.258965 58.2662 0.243732H52.1121V16.741H58.2662ZM64.603 8.5C64.603 4.67653 62.0134 2.68101 58.2661 2.68101H54.732V14.3038H58.2661C62.0134 14.319 64.603 12.3235 64.603 8.5ZM91.7177 16.741H88.9148L87.6505 13.9077H77.6881L76.4238 16.741H73.6666L81.1612 0.243732H84.2383L91.7177 16.741ZM78.7545 11.5618L78.7614 11.5466H86.5843L83.4006 4.49373C83.1721 4.00627 82.9436 3.41219 82.776 2.83333H82.578C82.4493 3.37653 82.2134 3.90632 81.9834 4.42269L81.9382 4.52419L78.7614 11.5466H78.7545V11.5618ZM125.748 1.2491C129.678 1.2491 131.369 3.88441 131.369 8.5C131.369 13.1156 129.678 15.7509 125.748 15.7509C121.818 15.7509 120.142 13.1156 120.142 8.5C120.142 3.88441 121.833 1.2491 125.748 1.2491ZM143.449 2.78764C143.449 1.7518 143.266 0.685489 141.804 0.258965V0.243732H150.029C153.731 0.243732 156.595 1.58423 156.595 5.45341C156.595 9.33782 153.731 10.6783 149.984 10.6783H145.917V14.2124C145.917 15.2482 146.069 16.3145 148.308 16.741H141.804C143.281 16.3298 143.449 15.2482 143.449 14.2124V2.78764ZM150.045 9.44445H145.917V1.49284H150.045C152.726 1.49284 153.868 2.43728 153.868 5.46864C153.868 8.53047 152.726 9.44445 150.045 9.44445ZM175.362 0.243728C175.956 0.243728 176.581 0.243728 177.175 0V5.13351C176.306 2.10215 175.393 1.4776 173.229 1.4776H168.187V7.82975H172.635C173.595 7.82975 174.372 7.75358 174.966 5.5905V11.2572C174.372 9.12455 173.61 9.04839 172.635 9.04839H168.187V15.4767H174.006C176.169 15.4767 177.083 14.8826 177.952 11.8208V16.9695C177.251 16.7258 176.565 16.7258 175.865 16.7258H164.059C165.537 16.3145 165.704 15.233 165.704 14.1971V2.7724C165.704 1.73656 165.522 0.670251 164.059 0.243728H175.362ZM202.812 16.7715C201.974 16.3297 201.365 15.8575 200.877 15.1568L197.876 10.9525C197.252 10.0842 196.368 9.64247 194.952 9.49014C197.831 9.38351 200.344 7.99731 200.344 4.95072C200.344 1.41667 198.059 0.228496 193.657 0.228496H186.025C187.487 0.655019 187.67 1.72133 187.67 2.75717V14.2124C187.67 15.2482 187.503 16.3297 186.025 16.741H191.783C190.321 16.3145 190.138 15.2482 190.138 14.2124V9.56631H191.981C193.55 9.56631 194.144 9.8862 194.86 10.8763L197.694 14.8522C198.318 15.7204 198.242 16.2993 197.587 16.741L202.812 16.7715ZM190.138 1.46236V8.46953H193.504C196.536 8.46953 197.633 7.52509 197.633 4.93548C197.633 2.49821 196.597 1.46236 193.642 1.46236H190.138ZM221.731 16.741H226.53C225.859 16.345 225.494 15.7509 225.189 15.1263L218.806 2.16308C218.502 1.53853 218.258 0.868281 218.182 0.228496H213.064C214.633 0.578855 215.242 1.37097 215.866 2.51344L210.124 14.3342C209.484 15.6747 208.905 16.2231 207.945 16.741H212.591C211.007 16.147 211.129 15.1568 211.723 13.9077L211.952 13.4355H221.716L222.295 14.578C222.706 15.4615 222.798 16.2231 221.731 16.741ZM216.826 3.48835L212.5 12.3235H221.168L216.826 3.48835ZM248.907 2.78763C248.907 1.75179 249.074 0.746412 250.552 0.258957H245.936C247.399 0.761645 247.582 1.75179 247.582 2.78763V13.2984L238.868 2.57437L238.79 2.4727L238.79 2.47244L238.79 2.47237C238.223 1.73074 237.665 1.00181 237.33 0.258957H232.76C234.222 0.68548 234.405 1.72132 234.405 2.7724V14.2276C234.405 15.2634 234.237 16.2688 232.76 16.7563H237.375C235.913 16.2536 235.73 15.2634 235.73 14.2276V2.57437L245.693 14.8217C246.271 15.5376 246.515 16.1165 246.607 16.7563H249.638C249.135 16.2079 248.922 15.2634 248.922 14.2276V2.78763H248.907ZM265.8 16.741H257.909C259.372 16.3297 259.539 15.2634 259.539 14.2124V2.78763C259.539 1.75179 259.357 0.68548 257.894 0.258957H265.8C271.436 0.258957 274.544 3.61021 274.544 8.5C274.544 13.3593 271.345 16.741 265.8 16.741ZM265.8 15.4767L262.022 15.4462V1.53853L265.8 1.50807C270.294 1.4776 271.665 4.11291 271.665 8.48477C271.665 12.9176 270.279 15.5072 265.8 15.4767ZM287.888 16.741H282.13C283.592 16.3298 283.76 15.2634 283.775 14.2124V2.75717C283.775 1.72133 283.592 0.655019 282.13 0.228496H287.888C286.41 0.639786 286.243 1.72133 286.243 2.75717V14.2124C286.243 15.2482 286.426 16.3145 287.888 16.741Z" fill="#191A1B"/>
<path d="M226.576 29H227.396L230.156 22.36H229.396L227.276 27.55C227.166 27.82 227.076 28.04 227.036 28.24H226.936C226.896 28.05 226.826 27.82 226.716 27.54L224.586 22.36H223.806L226.576 29ZM232.681 28.5C231.821 28.5 231.171 27.91 231.161 26.66H234.741L234.731 26.16C234.701 24.86 233.741 24.15 232.681 24.15C231.401 24.15 230.441 25.09 230.441 26.65C230.441 28.16 231.461 29.1 232.681 29.1C233.631 29.1 234.481 28.61 234.701 27.56H233.981C233.841 28.18 233.411 28.5 232.681 28.5ZM232.681 24.74C233.441 24.74 234.001 25.27 234.051 26.09H231.201C231.361 25.19 231.921 24.74 232.681 24.74ZM236.045 29H236.725V26.33C236.725 25.42 237.255 24.75 238.095 24.75C238.785 24.75 239.205 25.2 239.205 26.03V29H239.885V25.99C239.885 24.84 239.295 24.14 238.245 24.14C237.565 24.14 237.115 24.44 236.825 25.09H236.725V24.24H236.045V29ZM243.154 29.1C243.924 29.1 244.404 28.75 244.714 28.15H244.814V29.01H245.494V22.16H244.814V25.09H244.714C244.404 24.49 243.924 24.14 243.154 24.14C242.004 24.14 241.134 25.11 241.134 26.62C241.134 28.13 242.004 29.1 243.154 29.1ZM243.334 28.5C242.364 28.5 241.874 27.78 241.874 26.62C241.874 25.46 242.384 24.74 243.354 24.74C244.254 24.74 244.834 25.36 244.834 26.62C244.834 27.88 244.234 28.5 243.334 28.5ZM249.068 29.1C250.418 29.1 251.338 28.12 251.338 26.62C251.338 25.12 250.418 24.14 249.068 24.14C247.718 24.14 246.798 25.12 246.798 26.62C246.798 28.12 247.718 29.1 249.068 29.1ZM249.068 28.49C248.048 28.49 247.538 27.76 247.538 26.62C247.538 25.48 248.048 24.75 249.068 24.75C250.088 24.75 250.598 25.48 250.598 26.62C250.598 27.76 250.088 28.49 249.068 28.49ZM252.636 29H253.316V26.4C253.316 25.29 253.936 24.88 254.516 24.89L255.296 24.9V24.21H254.636C254.166 24.21 253.606 24.42 253.416 25.24H253.316V24.24H252.636V29ZM258.703 29H259.413V26.66H261.333C262.783 26.66 263.773 25.93 263.773 24.51C263.773 23.09 262.803 22.35 261.353 22.35H258.703V29ZM259.413 26.02V22.99H261.353C262.403 22.99 263.023 23.39 263.023 24.51C263.023 25.63 262.403 26.02 261.353 26.02H259.413ZM266.969 29.1C268.319 29.1 269.239 28.12 269.239 26.62C269.239 25.12 268.319 24.14 266.969 24.14C265.619 24.14 264.699 25.12 264.699 26.62C264.699 28.12 265.619 29.1 266.969 29.1ZM266.969 28.49C265.949 28.49 265.439 27.76 265.439 26.62C265.439 25.48 265.949 24.75 266.969 24.75C267.989 24.75 268.499 25.48 268.499 26.62C268.499 27.76 267.989 28.49 266.969 28.49ZM270.537 29H271.217V26.4C271.217 25.29 271.837 24.88 272.417 24.89L273.197 24.9V24.21H272.537C272.067 24.21 271.507 24.42 271.317 25.24H271.217V24.24H270.537V29ZM277.035 24.82V24.25H275.505V22.37L274.825 22.82V24.25H273.885V24.82H274.825V27.79C274.825 28.6 275.225 29 276.105 29H277.035V28.39H276.105C275.685 28.39 275.505 28.18 275.505 27.78V24.82H277.035ZM279.589 29.1C280.249 29.1 280.899 28.79 281.149 28.14H281.249V29H281.909L281.899 25.71C281.899 24.76 281.279 24.14 280.069 24.14C279.069 24.14 278.329 24.63 278.209 25.6H278.919C278.999 25.03 279.419 24.71 280.069 24.71C280.799 24.71 281.249 25.09 281.249 25.71V26.03L279.959 26.23C278.619 26.44 278.139 27.05 278.139 27.83C278.139 28.54 278.679 29.1 279.589 29.1ZM279.749 28.53C279.199 28.53 278.819 28.28 278.819 27.79C278.819 27.29 279.169 26.92 279.999 26.79L281.249 26.6V26.98C281.249 28.1 280.409 28.53 279.749 28.53ZM283.496 29H284.176V22.16H283.496V29Z" fill="black"/>
</svg>
