<?xml version="1.0" encoding="utf-8"?>
<!-- Generator: Adobe Illustrator 28.0.0, SVG Export Plug-In . SVG Version: 6.00 Build 0)  -->
<svg version="1.1" id="Layer_1" xmlns="http://www.w3.org/2000/svg" xmlns:xlink="http://www.w3.org/1999/xlink" x="0px" y="0px"
	 viewBox="0 0 216 72" style="enable-background:new 0 0 216 72;" xml:space="preserve">
<path d="M189.26,41.42h-7.06c0.51-0.28,0.75-0.81,0.75-1.66v-7.5c0-0.85-0.24-1.39-0.75-1.66h6.6c0.64,0,0.98-0.02,1.32-0.33v3.41
	c-0.57-1.74-1.17-2.1-2.59-2.1h-2.69v3.98h2.3c0.64,0,1.14-0.05,1.53-1.29v3.42c-0.39-1.12-0.9-1.17-1.53-1.17h-2.3v3.93h3.19
	c1.42,0,2.02-0.36,2.59-2.09v3.23C190.17,41.42,189.71,41.42,189.26,41.42z M171.31,39.76v-8.18h-1.63c-1.19,0-1.78,0.49-2.41,2.36
	v-3.67c0.34,0.31,0.68,0.33,1.32,0.33h7.3c0.64,0,0.98-0.02,1.32-0.33v3.67c-0.64-1.87-1.22-2.36-2.41-2.36h-1.61v8.18
	c0,0.85,0.24,1.38,1.24,1.66h-4.35C171.06,41.14,171.31,40.61,171.31,39.76z M153.91,39.84l3.65-7.77
	c-0.33-0.63-0.73-1.25-1.63-1.47h3.13c0.05,0.42,0.26,0.83,0.46,1.25l4.06,8.51c0.21,0.44,0.39,0.77,0.93,1.06h-3.32
	c0.65-0.34,0.54-0.75,0.31-1.21l-0.51-1.08h-5.62l-0.29,0.64c-0.36,0.78-0.18,1.32,0.49,1.65h-2.82
	C153.29,41.06,153.59,40.54,153.91,39.84z M160.56,38.23l-2.36-5.05l-2.4,5.05H160.56z M140.88,31.66
	c-0.21-0.44-0.41-0.77-0.93-1.06h3.41c-0.65,0.36-0.54,0.72-0.31,1.21l3,6.21l2.71-5.77c0.36-0.77,0.16-1.32-0.51-1.65h2.79
	c-0.55,0.36-0.85,0.9-1.17,1.58l-3.73,7.89c-0.28,0.57-0.41,0.93-0.5,1.35L140.88,31.66z M132.76,39.76v-7.5
	c0-0.85-0.24-1.39-0.75-1.66h3.39c-0.51,0.28-0.75,0.82-0.75,1.66v7.5c0,0.85,0.24,1.38,0.75,1.66h-3.39
	C132.51,41.14,132.76,40.61,132.76,39.76z M117.24,39.76v-7.5c0-0.85-0.24-1.39-0.75-1.66h4.58c2.97,0,4.74,0.82,4.74,3.11
	c0,2.04-1.73,2.87-3.86,3c1.12,0.1,1.63,0.44,2.12,1.09l1.6,2.2c0.47,0.67,0.77,0.98,1.4,1.42h-3.42c0.33-0.23,0.41-0.57,0.08-1.04
	l-1.86-2.62c-0.46-0.63-0.78-0.83-1.42-0.83h-1.32v2.84c0,0.85,0.24,1.38,0.75,1.66h-3.39C117,41.14,117.24,40.61,117.24,39.76z
	 M121.14,36.03c1.84,0,2.64-0.55,2.64-2.22c0-1.68-0.88-2.27-2.71-2.27h-1.94v4.48H121.14z M103.02,39.74v-7.5
	c0-0.85-0.24-1.39-0.75-1.66h4.89c2.92,0,4.58,0.86,4.58,3.39c0,2.56-2,3.52-4.6,3.52h-2.23v2.25c0,0.85,0.24,1.38,1.24,1.66h-3.88
	C102.78,41.12,103.02,40.58,103.02,39.74z M107.16,36.53c1.76,0,2.54-0.52,2.54-2.51c0-1.84-0.78-2.46-2.54-2.46h-2.25v4.97H107.16z
	 M27.95,33.98c-0.16-0.29-0.28-0.57-0.36-0.77h-0.15v8.35h-1.66l-0.02-10.83h2.22l3.36,6.25c0.23,0.44,0.51,0.98,0.65,1.35h0.13
	c0.15-0.38,0.44-0.91,0.68-1.37l3.34-6.23h2.2l-0.02,10.83h-1.66v-8.35h-0.15c-0.07,0.2-0.2,0.47-0.36,0.77l-4.11,7.62L27.95,33.98
	 M49.15,41.73c3.1,0,5.61-2.41,5.61-5.59s-2.48-5.56-5.61-5.56c-2.97,0-5.58,2.38-5.58,5.56S46.15,41.73,49.15,41.73 M49.16,40.09
	c-1.96,0-3.8-1.37-3.8-3.95c0-2.58,1.84-3.95,3.8-3.95s3.8,1.37,3.8,3.95C52.96,38.73,51.12,40.09,49.16,40.09 M69.97,36.15
	c0,3.46-2.58,5.41-5.95,5.41h-4.04V30.73h4.04C67.39,30.73,69.97,32.69,69.97,36.15 M68.18,36.15c0-2.51-1.7-3.82-4.16-3.82H61.7
	v7.63h2.32C66.48,39.96,68.18,38.66,68.18,36.15 M84.14,41.56h1.84l-4.91-10.83h-2.02l-4.93,10.83h1.81l0.83-1.86h6.54L84.14,41.56z
	 M77.47,38.15l2.09-4.62c0.16-0.36,0.33-0.73,0.42-1.11h0.13c0.11,0.38,0.26,0.77,0.41,1.09l2.09,4.63H77.47z"/>
</svg>
