<svg viewBox="0 0 189 12" 
  xmlns="http://www.w3.org/2000/svg">
  <path d="M2.18 3.41l4.11 7.62 4.11-7.62c.16-.29.29-.57.36-.77h.15v8.35h1.66L12.59.16h-2.2L7.05 6.39c-.25.46-.54.99-.69 1.37h-.13c-.15-.38-.42-.91-.65-1.35L2.22.16H0l.02 10.83h1.66V2.64h.15c.07.2.18.48.35.77zm21.2 7.75c3.1 0 5.61-2.41 5.61-5.59 0-3.18-2.48-5.56-5.61-5.56-2.97 0-5.58 2.38-5.58 5.56 0 3.18 2.57 5.59 5.58 5.59zm.01-1.63c-1.96 0-3.8-1.37-3.8-3.95s1.84-3.95 3.8-3.95c1.96 0 3.8 1.37 3.8 3.95s-1.84 3.95-3.8 3.95zM44.2 5.58c0 3.46-2.58 5.41-5.95 5.41h-4.04V.16h4.04c3.37.01 5.95 1.96 5.95 5.42zm-1.79 0c0-2.51-1.7-3.82-4.16-3.82h-2.32v7.63h2.32c2.46.01 4.16-1.3 4.16-3.81zm15.96 5.41h1.84L55.3.16h-2.02l-4.92 10.83h1.81L51 9.13h6.54l.83 1.86zm-6.67-3.4l2.09-4.62c.16-.36.33-.73.42-1.11h.13c.11.38.26.77.41 1.09l2.09 4.63H51.7v.01zm30.85 3.57c3.13 0 5.56-2.45 5.56-5.58S85.68 0 82.55 0c-3.13 0-5.56 2.45-5.56 5.58s2.43 5.58 5.56 5.58zm0-10.34c2.58 0 3.69 1.73 3.69 4.76s-1.11 4.76-3.69 4.76-3.68-1.73-3.68-4.76S79.98.82 82.55.82zM93.09.17c.96.28 1.08.98 1.08 1.66v7.5c0 .68-.11 1.39-1.08 1.66h4.27c-1.47-.28-1.57-.98-1.57-1.66V7.01h2.67c2.46 0 4.34-.88 4.34-3.43 0-2.54-1.88-3.42-4.31-3.42h-5.4v.01zM98.5 6.2h-2.71V.98h2.71c1.76 0 2.51.62 2.51 2.61 0 2.01-.75 2.61-2.51 2.61zM116.31 0c-.39.16-.8.16-1.19.16h-7.42c.96.28 1.08.98 1.08 1.66v7.5c0 .68-.11 1.39-1.08 1.66h7.75c.46 0 .91 0 1.37.16V7.76c-.57 2.01-1.17 2.4-2.59 2.4h-3.82V5.94h2.92c.64 0 1.14.05 1.53 1.45V3.67c-.39 1.42-.9 1.47-1.53 1.47h-2.92V.97h3.31c1.42 0 2.02.41 2.59 2.4V0zm16.83 11.01c-.55-.29-.95-.6-1.27-1.06l-1.97-2.76c-.41-.57-.99-.86-1.92-.96 1.89-.07 3.54-.98 3.54-2.98 0-2.32-1.5-3.1-4.39-3.1h-5.01c.96.28 1.08.98 1.08 1.66v7.52c0 .68-.11 1.39-1.08 1.66h3.78c-.96-.28-1.08-.98-1.08-1.66V6.28h1.21c1.03 0 1.42.21 1.89.86l1.86 2.61c.41.57.36.95-.07 1.24l3.43.02zm-8.32-5.45V.96h2.3c1.94 0 2.62.68 2.62 2.28 0 1.7-.72 2.32-2.71 2.32h-2.21zm20.74 5.43h3.15c-.44-.26-.68-.65-.88-1.06l-4.19-8.51c-.2-.41-.36-.85-.41-1.27h-3.36c1.03.23 1.43.75 1.84 1.5l-3.77 7.76c-.42.88-.8 1.24-1.43 1.58h3.05c-1.04-.39-.96-1.04-.57-1.86l.15-.31h6.41l.38.75c.27.58.33 1.08-.37 1.42zm-6.06-2.9l2.84-5.8 2.85 5.8h-5.69zm23.9-6.26c0-.68.11-1.34 1.08-1.66h-3.03c.96.33 1.08.98 1.08 1.66v6.9l-5.72-7.04c-.39-.51-.78-1.01-1.01-1.52h-3c.96.28 1.08.96 1.08 1.65v7.52c0 .68-.11 1.34-1.08 1.66h3.03c-.96-.33-1.08-.98-1.08-1.66V1.69l6.54 8.04c.38.47.54.85.6 1.27h1.99c-.33-.36-.47-.98-.47-1.66V1.83h-.01zm5.91 9.16h5.18c3.64 0 5.74-2.22 5.74-5.41 0-3.21-2.04-5.41-5.74-5.41h-5.19c.96.28 1.08.98 1.08 1.66v7.5c0 .69-.11 1.39-1.07 1.66zm5.18-.83l-2.48-.02V1.01l2.48-.02c2.95-.02 3.85 1.71 3.85 4.58 0 2.91-.91 4.61-3.85 4.59zm10.72.83h3.78c-.96-.28-1.08-.98-1.08-1.66V1.81c0-.68.11-1.39 1.08-1.66h-3.78c.96.28 1.08.98 1.08 1.66v7.52c-.01.69-.12 1.39-1.08 1.66z"/>
</svg>