<svg width="165" height="12" viewBox="0 0 165 12" fill="none" xmlns="http://www.w3.org/2000/svg">
<g clip-path="url(#clip0_1772_223)">
<path d="M163.26 11.42H156.2C156.71 11.14 156.95 10.61 156.95 9.76002V2.26002C156.95 1.41002 156.71 0.870019 156.2 0.600019H162.8C163.44 0.600019 163.78 0.58002 164.12 0.27002V3.68002C163.55 1.94002 162.95 1.58002 161.53 1.58002H158.84V5.56002H161.14C161.78 5.56002 162.28 5.51002 162.67 4.27002V7.69002C162.28 6.57002 161.77 6.52002 161.14 6.52002H158.84V10.45H162.03C163.45 10.45 164.05 10.09 164.62 8.36002V11.59C164.17 11.42 163.71 11.42 163.26 11.42ZM145.31 9.76002V1.58002H143.68C142.49 1.58002 141.9 2.07002 141.27 3.94002V0.27002C141.61 0.58002 141.95 0.600019 142.59 0.600019H149.89C150.53 0.600019 150.87 0.58002 151.21 0.27002V3.94002C150.57 2.07002 149.99 1.58002 148.8 1.58002H147.19V9.76002C147.19 10.61 147.43 11.14 148.43 11.42H144.08C145.06 11.14 145.31 10.61 145.31 9.76002ZM127.91 9.84002L131.56 2.07002C131.23 1.44002 130.83 0.820019 129.93 0.600019H133.06C133.11 1.02002 133.32 1.43002 133.52 1.85002L137.58 10.36C137.79 10.8 137.97 11.13 138.51 11.42H135.19C135.84 11.08 135.73 10.67 135.5 10.21L134.99 9.13002H129.37L129.08 9.77002C128.72 10.55 128.9 11.09 129.57 11.42H126.75C127.29 11.06 127.59 10.54 127.91 9.84002ZM134.56 8.23002L132.2 3.18002L129.8 8.23002H134.56ZM114.88 1.66002C114.67 1.22002 114.47 0.890019 113.95 0.600019H117.36C116.71 0.960019 116.82 1.32002 117.05 1.81002L120.05 8.02002L122.76 2.25002C123.12 1.48002 122.92 0.930019 122.25 0.600019H125.04C124.49 0.960019 124.19 1.50002 123.87 2.18002L120.14 10.07C119.86 10.64 119.73 11 119.64 11.42L114.88 1.66002ZM106.76 9.76002V2.26002C106.76 1.41002 106.52 0.870019 106.01 0.600019H109.4C108.89 0.880019 108.65 1.42002 108.65 2.26002V9.76002C108.65 10.61 108.89 11.14 109.4 11.42H106.01C106.51 11.14 106.76 10.61 106.76 9.76002ZM91.2398 9.76002V2.26002C91.2398 1.41002 90.9998 0.870019 90.4898 0.600019H95.0698C98.0398 0.600019 99.8098 1.42002 99.8098 3.71002C99.8098 5.75002 98.0798 6.58002 95.9498 6.71002C97.0698 6.81002 97.5798 7.15002 98.0698 7.80002L99.6698 10C100.14 10.67 100.44 10.98 101.07 11.42H97.6498C97.9798 11.19 98.0598 10.85 97.7298 10.38L95.8698 7.76002C95.4098 7.13002 95.0898 6.93002 94.4498 6.93002H93.1298V9.77002C93.1298 10.62 93.3698 11.15 93.8798 11.43H90.4898C90.9998 11.14 91.2398 10.61 91.2398 9.76002ZM95.1398 6.03002C96.9798 6.03002 97.7798 5.48002 97.7798 3.81002C97.7798 2.13002 96.8998 1.54002 95.0698 1.54002H93.1298V6.02002H95.1398V6.03002ZM77.0198 9.74002V2.24002C77.0198 1.39002 76.7798 0.850019 76.2698 0.580019H81.1598C84.0798 0.580019 85.7398 1.44002 85.7398 3.97002C85.7398 6.53002 83.7398 7.49002 81.1398 7.49002H78.9098V9.74002C78.9098 10.59 79.1498 11.12 80.1498 11.4H76.2698C76.7798 11.12 77.0198 10.58 77.0198 9.74002ZM81.1598 6.53002C82.9198 6.53002 83.6998 6.01002 83.6998 4.02002C83.6998 2.18002 82.9198 1.56002 81.1598 1.56002H78.9098V6.53002H81.1598ZM1.94977 3.98002C1.78977 3.69002 1.66977 3.41002 1.58977 3.21002H1.43977V11.56H-0.220234L-0.240234 0.730019H1.97976L5.33977 6.98002C5.56977 7.42002 5.84977 7.96002 5.98977 8.33002H6.11976C6.26976 7.95002 6.55976 7.42002 6.79976 6.96002L10.1398 0.730019H12.3398L12.3198 11.56H10.6598V3.21002H10.5098C10.4398 3.41002 10.3098 3.68002 10.1498 3.98002L6.03977 11.6L1.94977 3.98002ZM23.1498 11.73C26.2498 11.73 28.7598 9.32002 28.7598 6.14002C28.7598 2.96002 26.2798 0.580019 23.1498 0.580019C20.1798 0.580019 17.5698 2.96002 17.5698 6.14002C17.5698 9.32002 20.1498 11.73 23.1498 11.73ZM23.1598 10.09C21.1998 10.09 19.3598 8.72002 19.3598 6.14002C19.3598 3.56002 21.1998 2.19002 23.1598 2.19002C25.1198 2.19002 26.9598 3.56002 26.9598 6.14002C26.9598 8.73002 25.1198 10.09 23.1598 10.09ZM43.9698 6.15002C43.9698 9.61002 41.3898 11.56 38.0198 11.56H33.9798V0.730019H38.0198C41.3898 0.730019 43.9698 2.69002 43.9698 6.15002ZM42.1798 6.15002C42.1798 3.64002 40.4798 2.33002 38.0198 2.33002H35.6998V9.96002H38.0198C40.4798 9.96002 42.1798 8.66002 42.1798 6.15002ZM58.1398 11.56H59.9798L55.0698 0.730019H53.0498L48.1198 11.56H49.9298L50.7598 9.70002H57.2998L58.1398 11.56ZM51.4698 8.15002L53.5598 3.53002C53.7198 3.17002 53.8898 2.80002 53.9798 2.42002H54.1098C54.2198 2.80002 54.3698 3.19002 54.5198 3.51002L56.6098 8.14002H51.4698V8.15002Z" fill="black"/>
</g>
<defs>
<clipPath id="clip0_1772_223">
<rect width="165" height="12" fill="white"/>
</clipPath>
</defs>
</svg>
