<svg width="55" height="17" viewBox="0 0 55 17" fill="none" xmlns="http://www.w3.org/2000/svg">
<path d="M8.632 16.548L2.584 4.38C2.328 3.868 2.16 3.484 2.08 3.228H1.84V16.5H0.184L0.16 0.563999H2.464L7.576 10.86C7.592 10.892 7.904 11.572 8.512 12.9H8.752C9.072 12.196 9.4 11.508 9.736 10.836L14.824 0.563999H17.104L17.08 16.5H15.424V3.228H15.184C15.136 3.42 14.968 3.804 14.68 4.38L8.632 16.548ZM28.1764 16.74L26.4484 15.012L28.1764 13.284L29.9044 15.012L28.1764 16.74ZM46.3589 16.74C44.0869 16.74 42.1669 15.948 40.5989 14.364C39.0309 12.78 38.2469 10.844 38.2469 8.556C38.2469 6.252 39.0229 4.308 40.5749 2.724C42.1269 1.124 44.0549 0.323999 46.3589 0.323999C48.7109 0.323999 50.6469 1.116 52.1669 2.7C53.7029 4.268 54.4709 6.22 54.4709 8.556C54.4709 10.892 53.7109 12.844 52.1909 14.412C50.6709 15.964 48.7269 16.74 46.3589 16.74ZM46.3589 15.708C48.3269 15.708 49.8069 15.084 50.7989 13.836C51.7909 12.588 52.2869 10.828 52.2869 8.556C52.2869 6.252 51.7829 4.476 50.7749 3.228C49.7829 1.98 48.3109 1.356 46.3589 1.356C44.4549 1.356 42.9909 1.996 41.9669 3.276C40.9429 4.54 40.4309 6.3 40.4309 8.556C40.4309 10.812 40.9429 12.572 41.9669 13.836C42.9909 15.084 44.4549 15.708 46.3589 15.708Z" fill="#191A1B"/>
</svg>
