<?xml version="1.0" encoding="UTF-8"?>
<svg width="60px" height="60px" viewBox="0 0 60 60" version="1.1" xmlns="http://www.w3.org/2000/svg" xmlns:xlink="http://www.w3.org/1999/xlink">
    <!-- Generator: Sketch 57.1 (83088) - https://sketch.com -->
    <title>Icons/Pause/Black 60</title>
    <desc>Created with Sketch.</desc>
    <g id="Icons/Pause/Black-60" stroke="none" stroke-width="1" fill="none" fill-rule="evenodd">
        <g id="Icons/Play/Black-60" fill="#000000" fill-rule="nonzero">
            <path d="M30,0 C46.5682896,0 60,13.4316094 60,29.9997743 C60,46.5683906 46.5682896,60 30,60 C13.4312589,60 0,46.5683906 0,29.9997743 C0,13.4316094 13.4312589,0 30,0 Z M30,1 C13.9837003,1 1,13.9837375 1,29.9997743 C1,46.016195 13.9836328,59 30,59 C46.016074,59 59,46.0160367 59,29.9997743 C59,13.9838958 46.0160065,1 30,1 Z M24,20 L24,41 L23,41 L23,20 L24,20 Z M37,20 L37,41 L36,41 L36,20 L37,20 Z" id="Combined-Shape"></path>
        </g>
    </g>
</svg>