<svg width="20" height="20" viewBox="0 0 20 20" fill="none" xmlns="http://www.w3.org/2000/svg"><mask id="path-1-inside-1" fill="white"><path fill-rule="evenodd" clip-rule="evenodd" d="M11.5564 1.29289L18.907 8.64354C17.7695 9.78112 15.9387 9.80301 14.7744 8.70921L11.7417 12.4847L12.1579 12.9009C13.4259 14.1689 13.4259 16.2248 12.1579 17.4929L8.31105 13.6461L5.49272 16.4644L5.40011 16.557L5.27398 16.5923L3.81552 17.0007L2.95955 17.2404L3.19923 16.3844L3.6076 14.926L3.64291 14.7998L3.73552 14.7072L6.55385 11.8889L2.70703 8.04207C3.97509 6.77401 6.03102 6.77401 7.29907 8.04207L7.71526 8.45825L11.4907 5.42551C10.3969 4.26126 10.4188 2.43047 11.5564 1.29289ZM11.0304 11.7734L8.42656 9.16956L12.2009 6.13774L14.0622 7.99906L11.0304 11.7734ZM7.26096 12.596L4.53524 15.3217L4.40186 15.7981L4.87823 15.6647L7.60394 12.939L7.26096 12.596Z"/></mask><path fill-rule="evenodd" clip-rule="evenodd" d="M11.5564 1.29289L18.907 8.64354C17.7695 9.78112 15.9387 9.80301 14.7744 8.70921L11.7417 12.4847L12.1579 12.9009C13.4259 14.1689 13.4259 16.2248 12.1579 17.4929L8.31105 13.6461L5.49272 16.4644L5.40011 16.557L5.27398 16.5923L3.81552 17.0007L2.95955 17.2404L3.19923 16.3844L3.6076 14.926L3.64291 14.7998L3.73552 14.7072L6.55385 11.8889L2.70703 8.04207C3.97509 6.77401 6.03102 6.77401 7.29907 8.04207L7.71526 8.45825L11.4907 5.42551C10.3969 4.26126 10.4188 2.43047 11.5564 1.29289ZM11.0304 11.7734L8.42656 9.16956L12.2009 6.13774L14.0622 7.99906L11.0304 11.7734ZM7.26096 12.596L4.53524 15.3217L4.40186 15.7981L4.87823 15.6647L7.60394 12.939L7.26096 12.596Z" fill="white"/><path d="M18.907 8.64354L19.6141 9.35065L20.3212 8.64354L19.6141 7.93643L18.907 8.64354ZM11.5564 1.29289L12.2635 0.585786L11.5564 -0.121321L10.8493 0.585786L11.5564 1.29289ZM14.7744 8.70921L15.4591 7.9804L14.6715 7.24048L13.9948 8.08296L14.7744 8.70921ZM11.7417 12.4847L10.9621 11.8584L10.4004 12.5576L11.0346 13.1918L11.7417 12.4847ZM12.1579 12.9009L11.4508 13.608L12.1579 12.9009ZM12.1579 17.4929L11.4508 18.2L12.1579 18.9071L12.865 18.2L12.1579 17.4929ZM8.31105 13.6461L9.01816 12.939L8.31105 12.2319L7.60394 12.939L8.31105 13.6461ZM5.49272 16.4644L4.78562 15.7573L4.78561 15.7573L5.49272 16.4644ZM5.40011 16.557L5.66974 17.52L5.92199 17.4494L6.10722 17.2641L5.40011 16.557ZM5.27398 16.5923L5.00436 15.6294L5.00435 15.6294L5.27398 16.5923ZM3.81552 17.0007L3.54589 16.0378H3.54589L3.81552 17.0007ZM2.95955 17.2404L1.99659 16.9708L1.51725 18.6827L3.22919 18.2034L2.95955 17.2404ZM3.19923 16.3844L2.23626 16.1148L2.23626 16.1148L3.19923 16.3844ZM3.6076 14.926L4.57056 15.1956L4.57056 15.1956L3.6076 14.926ZM3.64291 14.7998L2.9358 14.0927L2.75058 14.278L2.67995 14.5302L3.64291 14.7998ZM3.73552 14.7072L3.02842 14.0001L3.02842 14.0001L3.73552 14.7072ZM6.55385 11.8889L7.26096 12.596L7.96807 11.8889L7.26096 11.1818L6.55385 11.8889ZM2.70703 8.04207L1.99992 7.33496L1.29282 8.04207L1.99992 8.74918L2.70703 8.04207ZM7.29907 8.04207L6.59197 8.74917L7.29907 8.04207ZM7.71526 8.45825L7.00816 9.16536L7.64232 9.79952L8.34151 9.23787L7.71526 8.45825ZM11.4907 5.42551L12.117 6.20513L12.9594 5.52839L12.2195 4.7408L11.4907 5.42551ZM8.42656 9.16956L7.80031 8.38994L6.93102 9.08822L7.71946 9.87666L8.42656 9.16956ZM11.0304 11.7734L10.3233 12.4805L11.1117 13.2689L11.81 12.3996L11.0304 11.7734ZM12.2009 6.13774L12.908 5.43064L12.2738 4.79647L11.5746 5.35812L12.2009 6.13774ZM14.0622 7.99906L14.8418 8.62532L15.4035 7.92612L14.7693 7.29196L14.0622 7.99906ZM4.53524 15.3217L3.82814 14.6146L3.64291 14.7998L3.57228 15.0521L4.53524 15.3217ZM7.26096 12.596L7.96807 11.8889L7.26096 11.1818L6.55385 11.8889L7.26096 12.596ZM4.40186 15.7981L3.4389 15.5285L2.95956 17.2404L4.67149 16.761L4.40186 15.7981ZM4.87823 15.6647L5.14786 16.6277L5.40011 16.557L5.58534 16.3718L4.87823 15.6647ZM7.60394 12.939L8.31105 13.6461L9.01816 12.939L8.31105 12.2319L7.60394 12.939ZM19.6141 7.93643L12.2635 0.585786L10.8493 2L18.1999 9.35065L19.6141 7.93643ZM14.0897 9.43803C15.6464 10.9005 18.0934 10.8714 19.6141 9.35065L18.1999 7.93643C17.4455 8.69087 16.231 8.70552 15.4591 7.9804L14.0897 9.43803ZM12.5213 13.1109L15.554 9.33547L13.9948 8.08296L10.9621 11.8584L12.5213 13.1109ZM11.0346 13.1918L11.4508 13.608L12.865 12.1938L12.4488 11.7776L11.0346 13.1918ZM11.4508 13.608C12.3283 14.4855 12.3283 15.9083 11.4508 16.7858L12.865 18.2C14.5236 16.5414 14.5236 13.8523 12.865 12.1938L11.4508 13.608ZM12.865 16.7858L9.01816 12.939L7.60394 14.3532L11.4508 18.2L12.865 16.7858ZM6.19983 17.1715L9.01816 14.3532L7.60394 12.939L4.78562 15.7573L6.19983 17.1715ZM6.10722 17.2641L6.19983 17.1715L4.78561 15.7573L4.693 15.8499L6.10722 17.2641ZM5.54361 17.5553L5.66974 17.52L5.13048 15.5941L5.00436 15.6294L5.54361 17.5553ZM4.08515 17.9637L5.54361 17.5553L5.00435 15.6294L3.54589 16.0378L4.08515 17.9637ZM3.22919 18.2034L4.08515 17.9637L3.54589 16.0378L2.68992 16.2774L3.22919 18.2034ZM2.23626 16.1148L1.99659 16.9708L3.92252 17.51L4.16219 16.654L2.23626 16.1148ZM2.64463 14.6563L2.23626 16.1148L4.16219 16.654L4.57056 15.1956L2.64463 14.6563ZM2.67995 14.5302L2.64463 14.6563L4.57056 15.1956L4.60587 15.0695L2.67995 14.5302ZM3.02842 14.0001L2.9358 14.0927L4.35002 15.5069L4.44263 15.4143L3.02842 14.0001ZM5.84675 11.1818L3.02842 14.0001L4.44263 15.4143L7.26096 12.596L5.84675 11.1818ZM7.26096 11.1818L3.41414 7.33496L1.99992 8.74918L5.84675 12.596L7.26096 11.1818ZM3.41414 8.74918C4.29167 7.87164 5.71443 7.87164 6.59197 8.74917L8.00618 7.33496C6.3476 5.67637 3.6585 5.67638 1.99992 7.33496L3.41414 8.74918ZM6.59197 8.74917L7.00816 9.16536L8.42237 7.75115L8.00618 7.33496L6.59197 8.74917ZM10.8645 4.64589L7.08901 7.67863L8.34151 9.23787L12.117 6.20513L10.8645 4.64589ZM10.8493 0.585786C9.32856 2.10651 9.29942 4.55354 10.7619 6.11022L12.2195 4.7408C11.4944 3.96897 11.509 2.75444 12.2635 2L10.8493 0.585786ZM7.71946 9.87666L10.3233 12.4805L11.7375 11.0663L9.13367 8.46245L7.71946 9.87666ZM9.05282 9.94918L12.8271 6.91736L11.5746 5.35812L7.80031 8.38994L9.05282 9.94918ZM11.4938 6.84485L13.3551 8.70617L14.7693 7.29196L12.908 5.43064L11.4938 6.84485ZM13.2826 7.37281L10.2508 11.1471L11.81 12.3996L14.8418 8.62532L13.2826 7.37281ZM5.24235 16.0288L7.96807 13.3031L6.55385 11.8889L3.82814 14.6146L5.24235 16.0288ZM5.36482 16.0677L5.49821 15.5913L3.57228 15.0521L3.4389 15.5285L5.36482 16.0677ZM4.6086 14.7017L4.13223 14.8351L4.67149 16.761L5.14786 16.6277L4.6086 14.7017ZM6.89684 12.2319L4.17112 14.9576L5.58534 16.3718L8.31105 13.6461L6.89684 12.2319ZM8.31105 12.2319L7.96807 11.8889L6.55385 13.3031L6.89684 13.6461L8.31105 12.2319Z" fill="black" mask="url(#path-1-inside-1)"/></svg>