<svg width="24" height="24" viewBox="0 0 24 24" fill="none" xmlns="http://www.w3.org/2000/svg">
<path fill-rule="evenodd" clip-rule="evenodd" d="M14.1421 1.41422C13.8979 1.65838 13.6875 1.92183 13.5113 2.1977C12.6784 3.50223 12.6118 5.08425 13.3677 6.21589L7.52156 10.3917L7.05016 9.92032C5.73223 8.60238 3.72343 8.39638 2.18953 9.30232C1.90535 9.47015 1.63747 9.67615 1.39331 9.92032L6.6758 15.2028L2.70049 19.1781L2.17016 21.8298L4.82181 21.2994L8.79712 17.3241L14.1212 22.6482C14.3654 22.4041 14.5714 22.1362 14.7392 21.852C15.6452 20.3181 15.4392 18.3093 14.1212 16.9914L13.6498 16.52L17.8256 10.6738C18.9573 11.4297 20.5393 11.3632 21.8439 10.5302C22.1197 10.3541 22.3832 10.1437 22.6273 9.8995L14.1421 1.41422ZM13.0606 17.3449L6.69661 10.981L6.34306 10.6274C5.41942 9.70379 4.04336 9.50832 2.92823 10.041L14.0005 21.1133C14.5332 19.9982 14.3378 18.6221 13.4141 17.6985L13.0606 17.3449ZM12.933 15.8031L17.0578 10.0284L14.0131 6.98378L8.23843 11.1086L12.933 15.8031ZM8.09002 16.617L7.38291 15.9099L3.62169 19.6711L3.44491 20.555L4.3288 20.3782L8.09002 16.617ZM14.1445 2.83088L21.2107 9.89705C20.1371 10.4714 18.8733 10.3881 18.0817 9.59645L14.4451 5.9599C13.6534 5.16821 13.5702 3.9044 14.1445 2.83088Z" fill="#191A1B"/>
</svg>
