<svg width="24" height="24" viewBox="0 0 24 24" fill="none" xmlns="http://www.w3.org/2000/svg"><mask id="path-1-inside-1" fill="white"><path fill-rule="evenodd" clip-rule="evenodd" d="M13.4142 0.68631L23.3137 10.5858C21.7817 12.1178 19.3161 12.1473 17.7481 10.6742L13.6638 15.7588L14.488 16.5831C16.0501 18.1452 16.0501 20.6779 14.488 22.2399L14.2243 22.5037L8.92096 17.2004L5.12538 20.996L5.03276 21.0886L4.90664 21.1239L2.94245 21.6739L2.08649 21.9136L2.32616 21.0576L2.87613 19.0934L2.91144 18.9673L3.00406 18.8747L6.79964 15.0791L1.49634 9.77577L1.76008 9.51203C3.32218 7.94993 5.85484 7.94993 7.41694 9.51203L8.24118 10.3363L13.3258 6.25192C11.8527 4.68396 11.8822 2.21835 13.4142 0.68631ZM12.9525 15.0475L8.95248 11.0476L14.0355 6.96447L17.0356 9.9645L12.9525 15.0475ZM7.50675 15.7862L3.80378 19.4892L3.52879 20.4713L4.51088 20.1963L8.21386 16.4933L7.50675 15.7862Z"/></mask><path fill-rule="evenodd" clip-rule="evenodd" d="M13.4142 0.68631L23.3137 10.5858C21.7817 12.1178 19.3161 12.1473 17.7481 10.6742L13.6638 15.7588L14.488 16.5831C16.0501 18.1452 16.0501 20.6779 14.488 22.2399L14.2243 22.5037L8.92096 17.2004L5.12538 20.996L5.03276 21.0886L4.90664 21.1239L2.94245 21.6739L2.08649 21.9136L2.32616 21.0576L2.87613 19.0934L2.91144 18.9673L3.00406 18.8747L6.79964 15.0791L1.49634 9.77577L1.76008 9.51203C3.32218 7.94993 5.85484 7.94993 7.41694 9.51203L8.24118 10.3363L13.3258 6.25192C11.8527 4.68396 11.8822 2.21835 13.4142 0.68631ZM12.9525 15.0475L8.95248 11.0476L14.0355 6.96447L17.0356 9.9645L12.9525 15.0475ZM7.50675 15.7862L3.80378 19.4892L3.52879 20.4713L4.51088 20.1963L8.21386 16.4933L7.50675 15.7862Z" fill="white"/><path d="M23.3137 10.5858L24.0208 11.2929L24.7279 10.5858L24.0208 9.8787L23.3137 10.5858ZM13.4142 0.68631L14.1213 -0.020797L13.4142 -0.727904L12.7071 -0.0207968L13.4142 0.68631ZM17.7481 10.6742L18.4328 9.94543L17.6452 9.20552L16.9685 10.048L17.7481 10.6742ZM13.6638 15.7588L12.8841 15.1326L12.3225 15.8318L12.9566 16.466L13.6638 15.7588ZM14.488 16.5831L15.1951 15.876L14.488 16.5831ZM14.488 22.2399L13.7809 21.5328L13.7809 21.5328L14.488 22.2399ZM14.2243 22.5037L13.5172 23.2108L14.2243 23.9179L14.9314 23.2108L14.2243 22.5037ZM8.92096 17.2004L9.62807 16.4933L8.92096 15.7862L8.21386 16.4933L8.92096 17.2004ZM5.12538 20.996L4.41827 20.2889L4.41827 20.2889L5.12538 20.996ZM5.03276 21.0886L5.30239 22.0516L5.55464 21.9809L5.73987 21.7957L5.03276 21.0886ZM4.90664 21.1239L4.63701 20.161L4.63701 20.161L4.90664 21.1239ZM2.94245 21.6739L3.21208 22.6369L3.21208 22.6369L2.94245 21.6739ZM2.08649 21.9136L1.12352 21.6439L0.64418 23.3559L2.35611 22.8765L2.08649 21.9136ZM2.32616 21.0576L1.36319 20.788H1.36319L2.32616 21.0576ZM2.87613 19.0934L3.83909 19.363L3.83909 19.363L2.87613 19.0934ZM2.91144 18.9673L2.20434 18.2602L2.01911 18.4454L1.94848 18.6977L2.91144 18.9673ZM3.00406 18.8747L3.71116 19.5818L3.71116 19.5818L3.00406 18.8747ZM6.79964 15.0791L7.50675 15.7862L8.21386 15.0791L7.50675 14.372L6.79964 15.0791ZM1.49634 9.77577L0.789231 9.06867L0.0821248 9.77577L0.789231 10.4829L1.49634 9.77577ZM1.76008 9.51203L1.05298 8.80492H1.05298L1.76008 9.51203ZM7.41694 9.51203L6.70983 10.2191H6.70983L7.41694 9.51203ZM8.24118 10.3363L7.53407 11.0434L8.16824 11.6775L8.86743 11.1159L8.24118 10.3363ZM13.3258 6.25192L13.952 7.03154L14.7945 6.3548L14.0546 5.56721L13.3258 6.25192ZM8.95248 11.0476L8.32623 10.268L7.45693 10.9662L8.24538 11.7547L8.95248 11.0476ZM12.9525 15.0475L12.2453 15.7546L13.0338 16.5431L13.7321 15.6738L12.9525 15.0475ZM14.0355 6.96447L14.7426 6.25737L14.1085 5.6232L13.4093 6.18485L14.0355 6.96447ZM17.0356 9.9645L17.8152 10.5908L18.3768 9.89156L17.7427 9.25739L17.0356 9.9645ZM3.80378 19.4892L3.09667 18.7821L2.91144 18.9673L2.84081 19.2195L3.80378 19.4892ZM7.50675 15.7862L8.21386 15.0791L7.50675 14.372L6.79964 15.0791L7.50675 15.7862ZM3.52879 20.4713L2.56583 20.2016L2.08649 21.9136L3.79842 21.4342L3.52879 20.4713ZM4.51088 20.1963L4.78051 21.1592L5.03276 21.0886L5.21799 20.9034L4.51088 20.1963ZM8.21386 16.4933L8.92097 17.2004L9.62807 16.4933L8.92097 15.7862L8.21386 16.4933ZM24.0208 9.8787L14.1213 -0.020797L12.7071 1.39342L22.6066 11.2929L24.0208 9.8787ZM17.0634 11.4031C19.0238 13.2448 22.1056 13.2081 24.0208 11.2929L22.6066 9.8787C21.4577 11.0276 19.6084 11.0498 18.4328 9.94543L17.0634 11.4031ZM14.4434 16.3851L18.5277 11.3005L16.9685 10.048L12.8841 15.1326L14.4434 16.3851ZM12.9566 16.466L13.7809 17.2902L15.1951 15.876L14.3709 15.0517L12.9566 16.466ZM13.7809 17.2902C14.9525 18.4618 14.9525 20.3613 13.7809 21.5328L15.1951 22.9471C17.1477 20.9944 17.1477 17.8286 15.1951 15.876L13.7809 17.2902ZM13.7809 21.5328L13.5172 21.7966L14.9314 23.2108L15.1951 22.9471L13.7809 21.5328ZM14.9314 21.7966L9.62807 16.4933L8.21386 17.9075L13.5172 23.2108L14.9314 21.7966ZM5.83248 21.7031L9.62807 17.9075L8.21386 16.4933L4.41827 20.2889L5.83248 21.7031ZM5.73987 21.7957L5.83249 21.7031L4.41827 20.2889L4.32565 20.3815L5.73987 21.7957ZM5.17627 22.0869L5.30239 22.0516L4.76314 20.1256L4.63701 20.161L5.17627 22.0869ZM3.21208 22.6369L5.17627 22.0869L4.63701 20.161L2.67282 20.7109L3.21208 22.6369ZM2.35611 22.8765L3.21208 22.6369L2.67282 20.7109L1.81686 20.9506L2.35611 22.8765ZM1.36319 20.788L1.12352 21.6439L3.04945 22.1832L3.28912 21.3272L1.36319 20.788ZM1.91316 18.8238L1.36319 20.788L3.28912 21.3272L3.83909 19.363L1.91316 18.8238ZM1.94848 18.6977L1.91316 18.8238L3.83909 19.363L3.87441 19.2369L1.94848 18.6977ZM2.29695 18.1676L2.20434 18.2602L3.61855 19.6744L3.71116 19.5818L2.29695 18.1676ZM6.09254 14.372L2.29695 18.1676L3.71116 19.5818L7.50675 15.7862L6.09254 14.372ZM7.50675 14.372L2.20344 9.06867L0.789231 10.4829L6.09254 15.7862L7.50675 14.372ZM2.20345 10.4829L2.46719 10.2191L1.05298 8.80492L0.789231 9.06867L2.20345 10.4829ZM2.46719 10.2191C3.63876 9.04756 5.53826 9.04756 6.70983 10.2191L8.12404 8.80492C6.17142 6.8523 3.0056 6.8523 1.05298 8.80492L2.46719 10.2191ZM6.70983 10.2191L7.53407 11.0434L8.94829 9.62916L8.12404 8.80492L6.70983 10.2191ZM12.6995 5.4723L7.61493 9.55665L8.86743 11.1159L13.952 7.03154L12.6995 5.4723ZM12.7071 -0.0207968C10.7919 1.89438 10.7552 4.97624 12.597 6.93663L14.0546 5.56721C12.9502 4.39167 12.9724 2.54232 14.1213 1.39342L12.7071 -0.0207968ZM8.24538 11.7547L12.2453 15.7546L13.6596 14.3404L9.65959 10.3405L8.24538 11.7547ZM9.57873 11.8272L14.6618 7.74409L13.4093 6.18485L8.32623 10.268L9.57873 11.8272ZM13.3284 7.67158L16.3284 10.6716L17.7427 9.25739L14.7426 6.25737L13.3284 7.67158ZM16.2559 9.33825L12.1728 14.4213L13.7321 15.6738L17.8152 10.5908L16.2559 9.33825ZM4.51088 20.1963L8.21386 16.4933L6.79964 15.0791L3.09667 18.7821L4.51088 20.1963ZM4.49175 20.7409L4.76674 19.7588L2.84081 19.2195L2.56583 20.2016L4.49175 20.7409ZM4.24125 19.2333L3.25916 19.5083L3.79842 21.4342L4.78051 21.1592L4.24125 19.2333ZM7.50675 15.7862L3.80378 19.4892L5.21799 20.9034L8.92097 17.2004L7.50675 15.7862ZM8.92097 15.7862L8.21386 15.0791L6.79964 16.4933L7.50675 17.2004L8.92097 15.7862Z" fill="black" mask="url(#path-1-inside-1)"/></svg>