<svg width="22" height="22" viewBox="0 0 22 22" fill="none" xmlns="http://www.w3.org/2000/svg">
<path fill-rule="evenodd" clip-rule="evenodd" d="M13.1421 0.414215C12.8979 0.658379 12.6875 0.921835 12.5113 1.1977C11.6784 2.50223 11.6118 4.08425 12.3677 5.21589L6.52156 9.39172L6.05016 8.92032C4.73223 7.60238 2.72343 7.39638 1.18953 8.30232C0.90535 8.47015 0.637474 8.67615 0.393311 8.92032L5.6758 14.2028L1.70049 18.1781L1.17016 20.8298L3.82181 20.2994L7.79712 16.3241L13.1212 21.6482C13.3654 21.4041 13.5714 21.1362 13.7392 20.852C14.6452 19.3181 14.4392 17.3093 13.1212 15.9914L12.6498 15.52L16.8256 9.67383C17.9573 10.4297 19.5393 10.3632 20.8439 9.53022C21.1197 9.35408 21.3832 9.14366 21.6273 8.8995L13.1421 0.414215ZM12.0606 16.3449L5.69661 9.98097L5.34306 9.62742C4.41942 8.70379 3.04336 8.50832 1.92823 9.04102L13.0005 20.1133C13.5332 18.9982 13.3378 17.6221 12.4141 16.6985L12.0606 16.3449ZM11.933 14.8031L16.0578 9.0284L13.0131 5.98378L7.23843 10.1086L11.933 14.8031ZM7.09002 15.617L6.38291 14.9099L2.62169 18.6711L2.44491 19.555L3.3288 19.3782L7.09002 15.617ZM13.1445 1.83088L20.2107 8.89705C19.1371 9.47135 17.8733 9.38814 17.0817 8.59645L13.4451 4.9599C12.6534 4.16821 12.5702 2.9044 13.1445 1.83088Z" fill="#191A1B"/>
</svg>
