<svg xmlns="http://www.w3.org/2000/svg" viewBox="0 0 24 24">
  <path d="M22.87437185929648 13.12681052320426c0 -0.3121489801950932 -0.2518474726574047 -0.5604493053502808 -0.5616316878510198 -0.5604493053502808h-2.8625480342890928c-0.3097842151936152 0 -0.5616316878510198 0.2483003251551877 -0.5616316878510198 0.5604493053502808c0 3.796630209872894 -3.091930239432457 6.88856044930535 -6.88974283180609 6.88856044930535s-6.88974283180609 -3.091930239432457 -6.88974283180609 -6.88856044930535c0 -3.8001773573751114 3.0907478569317175 -6.88856044930535 6.88974283180609 -6.88856044930535c0.40201005025125636 0 0.8040201005025127 0.033106710020691696 1.201300620750813 0.10523204256577004v1.9473839787171152c0 0.22819982264262492 0.13715637008572276 0.433934377771209 0.34407330771504585 0.5190659178244162C13.758202778598875 8.896245935560154 13.99704404374815 8.846585870529118 14.160212828850133 8.686964232929354L19.873485072420927 4.817026308010642c0.217558380135974 -0.218740762636713 0.217558380135974 -0.5699083653561928 0 -0.7886491279929059l-5.714454626071535 -3.8640260124150165c-0.16080402010050254 -0.16080402010050254 -0.3996452852497784 -0.20809932013006208 -0.6136565178835354 -0.12296778007685487c-0.2069169376293231 0.0874963050546852 -0.34407330771504585 0.29086609518179135 -0.34407330771504585 0.5178835353236773V2.317469701448419c-0.40201005025125636 -0.044930535028081586 -0.8040201005025127 -0.0673958025421224 -1.201300620750813 -0.0673958025421224c-5.995861661247414 0 -10.875554241797223 4.879692580549809 -10.875554241797223 10.875554241797223c0 5.994679278746676 4.879692580549809 10.874371859296483 10.875554241797223 10.874371859296483C17.994679278746673 24.00118238250074 22.87437185929648 19.121489801950933 22.87437185929648 13.12681052320426z"/>
</svg>
