<?xml version="1.0" encoding="UTF-8"?>
<svg width="16px" height="16px" viewBox="0 0 16 16" version="1.1" xmlns="http://www.w3.org/2000/svg" xmlns:xlink="http://www.w3.org/1999/xlink">
    <!-- Generator: Sketch 56.3 (81716) - https://sketch.com -->
    <title>Icons/Returns/16</title>
    <desc>Created with Sketch.</desc>
    <g id="Icons/Returns/16" stroke="none" stroke-width="1" fill="none" fill-rule="evenodd">
        <g id="Group" transform="translate(1.000000, 0.703412)" fill="#000000" fill-rule="nonzero">
            <path d="M9,2.29756148 C11.7706487,2.3506533 14,4.56846379 14,7.29658791 C14,10.0580117 11.7158934,12.2965879 8.89830508,12.2965879 L7,12.2965879 L7,11.5989135 L8.89830508,11.5989135 C11.3227415,11.5989135 13.2881356,9.67269672 13.2881356,7.29658791 C13.2881356,4.95379148 11.3774638,3.04836079 9,2.99539407 L9,2.29756148 Z M7,2.29658791 L7,2.99426233 L5.10169492,2.99426233 C2.2150475,2.99426233 0.711864407,4.73296025 0.711864407,7.29658791 C0.711864407,9.48398622 2.70372031,11.5384017 5,11.5976021 L5,12.2954842 C2.30565867,12.2370097 0,9.86385868 0,7.29658791 C0,4.37089909 1.79333595,2.29658791 5.10169492,2.29658791 L7,2.29658791 Z" id="Combined-Shape"></path>
            <polygon id="Path-4" points="10.2820482 9.74238224 9.8230902 9.14920642 6.38719882 11.807659 9.8230902 14.4661117 10.2820482 13.8729358 7.61280118 11.807659"></polygon>
            <polygon id="Path-4" transform="translate(5.647425, 2.658453) scale(-1, 1) translate(-5.647425, -2.658453) " points="7.59484938 0.593175823 7.13589138 -1.59872116e-14 3.7 2.65845262 7.13589138 5.31690524 7.59484938 4.72372942 4.92560235 2.65845262"></polygon>
        </g>
    </g>
</svg>