<?xml version="1.0" encoding="UTF-8"?>
<svg width="20px" height="20px" viewBox="0 0 20 20" version="1.1" xmlns="http://www.w3.org/2000/svg" xmlns:xlink="http://www.w3.org/1999/xlink">
    <!-- Generator: Sketch 57.1 (83088) - https://sketch.com -->
    <title>Icons/Search/20</title>
    <desc>Created with Sketch.</desc>
    <g id="Icons/Search/20" stroke="none" stroke-width="1" fill="none" fill-rule="evenodd">
        <path d="M8.5,2 C12.0898509,2 15,4.91014913 15,8.5 C15,10.1148687 14.4111063,11.592194 13.4363556,12.7289391 L18.0134785,17.3063718 L17.3063718,18.0134785 L12.7289391,13.4363556 C11.592194,14.4111063 10.1148687,15 8.5,15 C4.91014913,15 2,12.0898509 2,8.5 C2,4.91014913 4.91014913,2 8.5,2 Z M8.5,3 C5.46243388,3 3,5.46243388 3,8.5 C3,11.5375661 5.46243388,14 8.5,14 C11.5375661,14 14,11.5375661 14,8.5 C14,5.46243388 11.5375661,3 8.5,3 Z" id="Combined-Shape" fill="#000000" fill-rule="nonzero"></path>
    </g>
</svg>