<?xml version="1.0" encoding="UTF-8"?>
<svg width="16px" height="16px" viewBox="0 0 16 16" version="1.1" xmlns="http://www.w3.org/2000/svg" xmlns:xlink="http://www.w3.org/1999/xlink">
    <!-- Generator: Sketch 59.1 (86144) - https://sketch.com -->
    <title>Combined Shape</title>
    <desc>Created with Sketch.</desc>
    <g id="Prompt" stroke="none" stroke-width="1" fill="none" fill-rule="evenodd">
        <g id="full-version" transform="translate(-932.000000, -200.000000)" fill="#C44CB0">
            <g id="Group-2" transform="translate(906.000000, 106.000000)">
                <g id="Error" transform="translate(26.000000, 94.000000)">
                    <path d="M7.8468806,2.04281037e-14 C12.1805931,2.04281037e-14 15.6937612,3.43567175 15.6937612,7.67378764 C15.6937612,11.9119035 12.1805931,15.3475753 7.8468806,15.3475753 C3.51316811,15.3475753 -3.24185123e-13,11.9119035 -3.24185123e-13,7.67378764 C-3.24185123e-13,3.43567175 3.51316811,2.04281037e-14 7.8468806,2.04281037e-14 Z M7.99225,11 C7.42529167,11 7,11.451 7,11.99225 C7,12.5205833 7.42525,12.9845 7.99225,12.9845 C8.52058333,12.9845 8.971625,12.5205833 8.971625,11.99225 C8.971625,11.451 8.52054167,11 7.99225,11 Z M7.94066667,3 C7.41233333,3 7,3.2835 7,3.78608333 C7,5.3195 7.180375,7.523 7.180375,9.05645833 C7.18041667,9.45591667 7.528375,9.62341667 7.94070833,9.62341667 C8.24995833,9.62341667 8.68808333,9.45591667 8.68808333,9.05645833 C8.68808333,7.52304167 8.86845833,5.31954167 8.86845833,3.78608333 C8.86845833,3.28354167 8.44325,3 7.94066667,3 Z" id="Combined-Shape"></path>
                </g>
            </g>
        </g>
    </g>
</svg>