<svg viewBox="0 0 16 16"><path d="M10.927 7.891c0 1.592-1.268 2.881-2.833 2.881-1.566 0-2.834-1.289-2.834-2.88 0-.207.022-.407.063-.6H2v4.584c0 1.169.932 2.116 2.081 2.116h7.838c1.15 0 2.081-.947 2.081-2.116V7.292h-3.136c.04.193.063.393.063.6M11.92 2H4.08C2.931 2 2 2.911 2 4.036v2.171h3.838a2.84 2.84 0 012.256-1.11c.923 0 1.737.44 2.254 1.11H14V4.036C14 2.911 13.068 2 11.92 2zm.78 2.392c0 .29-.241.526-.539.526h-.696a.531.531 0 01-.538-.526V3.71c0-.29.24-.526.538-.526h.696c.298 0 .539.236.539.526v.682z" fill-rule="evenodd"/></svg>