<svg viewBox="0 0 16 16"><path d="M7.477 10.05c-.325 1.423-.644 2.796-1.338 3.88-.213.33-.427.748-.791.927-.539-2.765.586-5.092 1.03-7.417-.566-1.154-.215-3.109.997-3.33 1.755-.322 1.293 1.796.995 2.78-.164.54-.458 1.057-.414 1.649.097 1.248 1.67 1.33 2.474.686 1.153-.919 1.486-2.695 1.373-4.154-.17-2.222-2.687-3.328-4.909-2.44-1.145.46-2.185 1.511-2.336 3.057-.079.815.093 1.465.413 1.923.048.07.215.194.24.38.05.376-.173.78-.379 1.062-1.137-.327-1.725-1.35-1.819-2.643C2.8 3.467 5.215 1.228 8.06 1.02c3.036-.224 5.443 1.53 5.666 4.085.167 1.9-.509 3.811-1.578 4.84-.806.774-2.517 1.532-3.915.791-.31-.164-.447-.365-.756-.687" fill-rule="evenodd"/></svg>