<svg width="36" height="36" viewBox="0 0 36 36" fill="none" xmlns="http://www.w3.org/2000/svg">
<circle cx="18" cy="18" r="18" fill="black" fill-opacity="0.7"/>
<path d="M7.875 13.6142V21.3859H11.3424L18.337 27.1251V7.875L11.3424 13.6142H7.875Z" fill="white"/>
<path d="M23.3349 8.09082L22.5228 8.96309C24.7185 11.0385 25.9216 13.7756 25.9216 16.6631C25.9216 19.5506 24.7185 22.2877 22.4927 24.333L23.3048 25.2053C25.7712 22.9494 27.1247 19.9115 27.1247 16.6631C27.1247 13.4147 25.7712 10.3768 23.3349 8.09082Z" fill="white"/>
<path d="M21.831 10.7979L21.0188 11.6701C22.4325 13.0236 23.2146 14.7983 23.2146 16.6631C23.2146 18.5279 22.4325 20.3026 20.9888 21.626L21.8009 22.4983C23.4853 20.9643 24.4177 18.8889 24.4177 16.6631C24.4177 14.4373 23.4853 12.3619 21.831 10.7979Z" fill="white"/>
<path d="M20.3273 13.5352L19.4551 14.3773C20.6582 15.6406 20.6582 17.6859 19.4551 18.9492L20.3273 19.7914C21.9816 18.077 21.9816 15.2496 20.3273 13.5352Z" fill="white"/>
</svg>
