<svg width="48" height="48" viewBox="0 0 48 48" fill="none" xmlns="http://www.w3.org/2000/svg">
<path fill-rule="evenodd" clip-rule="evenodd" d="M0 24C0 10.7448 10.7448 0 24 0C37.2552 0 48 10.7448 48 24C48 37.2552 37.2552 48 24 48C10.7448 48 0 37.2552 0 24ZM21.2706 35.1212L37.9863 18.4053C38.92 17.4716 38.92 15.9623 37.9863 15.0286C37.0526 14.0949 35.5434 14.0949 34.6097 15.0286L19.5823 30.0563L14.1067 24.5806C13.173 23.6469 11.6638 23.6469 10.7301 24.5806C9.79643 25.5143 9.79643 27.0235 10.7301 27.9572L17.894 35.1212C18.3597 35.5869 18.971 35.8209 19.5823 35.8209C20.1936 35.8209 20.8049 35.5869 21.2706 35.1212Z" fill="#62A517"/>
<mask id="mask0" style="mask-type:alpha" maskUnits="userSpaceOnUse" x="0" y="0" width="48" height="48">
<path fill-rule="evenodd" clip-rule="evenodd" d="M0 24C0 10.7448 10.7448 0 24 0C37.2552 0 48 10.7448 48 24C48 37.2552 37.2552 48 24 48C10.7448 48 0 37.2552 0 24ZM21.2706 35.1212L37.9863 18.4053C38.92 17.4716 38.92 15.9623 37.9863 15.0286C37.0526 14.0949 35.5434 14.0949 34.6097 15.0286L19.5823 30.0563L14.1067 24.5806C13.173 23.6469 11.6638 23.6469 10.7301 24.5806C9.79643 25.5143 9.79643 27.0235 10.7301 27.9572L17.894 35.1212C18.3597 35.5869 18.971 35.8209 19.5823 35.8209C20.1936 35.8209 20.8049 35.5869 21.2706 35.1212Z" fill="white"/>
</mask>
<g mask="url(#mask0)">
<rect width="48" height="48" fill="#62A517"/>
</g>
</svg>
