<?xml version="1.0" encoding="UTF-8"?>
<svg width="257px" height="31px" viewBox="0 0 257 31" version="1.1" xmlns="http://www.w3.org/2000/svg" xmlns:xlink="http://www.w3.org/1999/xlink">
    <!-- Generator: sketchtool 53.2 (72643) - https://sketchapp.com -->
    <title>D61ED827-C80A-48B3-AFF4-C4DDB28E7E5C</title>
    <desc>Created with sketchtool.</desc>
    <g id="MVP---Final" stroke="none" stroke-width="1" fill="none" fill-rule="evenodd">
        <g id="MVP-Dashboard" transform="translate(-123.000000, -40.000000)">
            <rect fill="#FFFFFF" x="0" y="0" width="1440" height="1024"></rect>
            <g id="Group-2" transform="translate(123.000000, 40.000000)">
                <g id="Logo/Desktop/Black" fill="#010101">
                    <g id="Logo">
                        <path d="M22.116206,18.5548387 C20.8247487,18.4451613 20.8699497,17.6 20.786005,16.2451613 C20.5729146,12.3741935 20.5470854,6.99354839 20.4889698,4.12903226 C20.4889698,2.23225806 20.6762312,1.72258065 22.3874121,1.5483871 L22.9556533,1.49677419 C23.0912563,1.38709677 23.0912563,1.30322581 22.9556533,1.19354839 C22.0903769,1.2516129 21.1928141,1.29032258 20.5212563,1.29032258 C19.9788442,1.29032258 19.410603,1.29032258 18.4872111,1.21290323 C18.4355528,2.45806452 17.6477638,3.74193548 16.4273367,6.2 L13.8896231,11.3612903 C13.211608,12.7354839 12.533593,14.1419355 11.8039196,15.4129032 L11.7522613,15.4129032 C11.1065327,14.2258065 10.506005,12.9806452 9.88610553,11.7096774 L6.79952261,5.45806452 C5.96007538,3.72903226 5.2820603,2.23225806 5.39183417,1.2 C4.5201005,1.29032258 3.76459799,1.29032258 3.14469849,1.29032258 C2.52479899,1.29032258 1.82095477,1.2516129 1.00733668,1.2 C0.794246231,1.30967742 0.807160804,1.33548387 0.936306533,1.49677419 L1.33020101,1.53548387 C2.98326633,1.7483871 3.22864322,2.15483871 3.14469849,3.87096774 C3.0930402,5.36129032 2.98326633,7.8516129 2.84766332,10.0967742 C2.68623116,12.7741935 2.55062814,14.4451613 2.38919598,16.2322581 C2.22130653,18.1225806 1.84678392,18.4 0.710301508,18.5612903 L0.116231156,18.6451613 C-0.148517588,18.8645161 0.116231156,18.9741935 0.167889447,19.0129032 C1.09128141,18.9612903 2.05987437,18.9354839 2.92515075,18.9354839 C3.95831658,18.9354839 5.01085427,18.9354839 5.93424623,19.0129032 C6.28939698,18.8645161 6.01173367,18.6967742 5.93424623,18.6516129 L4.9010804,18.5677419 C3.84854271,18.4903226 3.68711055,17.9225806 3.68711055,15.9419355 C3.68711055,13.6451613 3.79688442,11.0387097 3.88082915,9.39354839 C3.96477387,7.7483871 4.03580402,6.2516129 4.14557789,4.58064516 L4.20369347,4.58064516 C4.79776382,5.82580645 5.36600503,7.22580645 5.93424623,8.4516129 L8.40092965,13.6129032 C9.04665829,14.9354839 10.3381156,17.6903226 10.8934422,19.0709677 C10.9118999,19.1400614 10.977056,19.1861731 11.0484171,19.1806452 C11.158191,19.1806452 11.158191,19.1806452 11.2163065,19.0709677 C11.700603,17.8258065 12.9662312,15.2903226 14.1866583,12.9096774 L16.5952261,8.17419355 C17.1376382,7.12258065 18.1643467,4.9483871 18.351608,4.65806452 L18.4097236,4.65806452 L18.5130402,16.1290323 C18.5130402,17.8580645 18.5130402,18.4064516 17.1892965,18.5419355 L16.4015075,18.6258065 C16.2400754,18.7870968 16.2659045,18.8580645 16.4596231,18.9870968 C17.5702764,18.9354839 18.7842462,18.9096774 19.7334673,18.9096774 C20.6826884,18.9096774 21.8127136,18.9096774 22.9233668,18.9870968 C23.1170854,18.883871 23.1429146,18.7870968 22.9814824,18.6258065 L22.116206,18.5548387 Z M45.7950754,9.92258065 C45.8516603,12.4320821 44.88237,14.8562811 43.1107539,16.6360796 C41.3391378,18.4158781 38.9181618,19.3976036 36.4061809,19.3548387 C30.4009045,19.3548387 26.7719095,15.0580645 26.7719095,10.1870968 C26.7157928,7.62496926 27.7156163,5.15231284 29.5372601,3.34812785 C31.3589039,1.54394287 33.8423895,0.566674554 36.4061809,0.64516129 C42.6568342,0.64516129 45.7950754,5.16129032 45.7950754,9.92258065 Z M43.0894724,10.7548387 C43.0894724,6.29677419 41.1135427,1.29032258 35.9477136,1.29032258 C33.1323367,1.29032258 29.4904271,3.41290323 29.4904271,9.33548387 C29.4904271,13.3354839 31.4276131,18.716129 36.7677889,18.716129 C40.0351759,18.7096774 43.0894724,16.083871 43.0894724,10.7548387 Z M68.4988945,9.78709677 C68.5815703,13.1517718 66.7472212,16.272176 63.7657035,17.8387097 C61.8775642,18.7489356 59.7978134,19.1915178 57.7023116,19.1290323 C55.9717588,19.1290323 54.241206,18.9096774 53.2919849,18.9096774 C52.1555025,18.9096774 51.1804523,18.9096774 49.9083668,18.9870968 C49.7469347,18.9096774 49.6952764,18.7806452 49.8567085,18.6193548 L50.5024372,18.5354839 C52.0715578,18.3225806 52.1296734,18 52.1296734,15.1612903 L52.1296734,4.19354839 C52.1296734,2.30322581 51.9940704,1.73548387 50.8382161,1.56774194 L50.2441457,1.49032258 C50.0633417,1.38064516 50.0568844,1.27741935 50.2441457,1.19354839 C52.5623116,1.07741935 54.7577889,0.993548387 57.0565829,0.993548387 C59.0736233,0.910576598 61.0894006,1.18580955 63.010201,1.80645161 C66.4043613,2.96189706 68.6362582,6.20710973 68.4988945,9.78709677 L68.4988945,9.78709677 Z M65.7932915,9.83870968 C65.7932915,6.86451613 64.3597739,1.50967742 57.2696734,1.50967742 C56.3464947,1.44267818 55.4219971,1.62073798 54.5898995,2.02580645 C54.376809,2.18709677 54.3186935,2.86451613 54.3186935,4.08387097 L54.3186935,14.4709677 C54.3186935,15.9032258 54.4026382,16.7677419 54.8611055,17.4193548 C55.4616332,18.2516129 56.3785678,18.6322581 58.0897487,18.6322581 C63.3330653,18.6322581 65.7932915,14.8387097 65.7932915,9.83870968 L65.7932915,9.83870968 Z M245.473744,9.78709677 C245.553357,13.150979 243.719886,16.2698892 240.740553,17.8387097 C238.852413,18.7489356 236.772663,19.1915178 234.677161,19.1290323 C232.946608,19.1290323 231.216055,18.9096774 230.266834,18.9096774 C229.130352,18.9096774 228.155302,18.9096774 226.883216,18.9870968 C226.721784,18.9096774 226.670126,18.7806452 226.831558,18.6193548 L227.477286,18.5354839 C229.046407,18.3225806 229.104523,18 229.104523,15.1612903 L229.104523,4.19354839 C229.104523,2.30322581 228.962462,1.73548387 227.813065,1.56774194 L227.218995,1.49032258 C227.044648,1.38064516 227.038191,1.27741935 227.251281,1.19354839 C229.550075,1.05806452 231.739095,0.974193548 234.037889,0.974193548 C236.057071,0.890728741 238.075054,1.16596436 239.997965,1.78709677 C243.394104,2.94913093 245.621647,6.2035245 245.473744,9.78709677 Z M242.768141,9.83870968 C242.768141,6.86451613 241.334623,1.50967742 234.244523,1.50967742 C233.321344,1.44267818 232.396846,1.62073798 231.564749,2.02580645 C231.351658,2.18709677 231.293543,2.86451613 231.293543,4.08387097 L231.293543,14.4709677 C231.293543,15.9032258 231.377487,16.7677419 231.835955,17.4193548 C232.430025,18.2516129 233.353417,18.6322581 235.064598,18.6322581 C240.307915,18.6322581 242.79397,14.8387097 242.79397,9.83870968 L242.768141,9.83870968 Z M87.9417839,18.6258065 C88.1290452,18.7612903 88.0773869,18.8967742 87.9417839,19 C86.8311307,18.9483871 85.8819095,18.9225806 84.6679397,18.9225806 C83.4539698,18.9225806 82.3368593,18.9741935 81.5555276,19 C81.3359799,18.8967742 81.3101508,18.7741935 81.4974121,18.6387097 L82.285201,18.5548387 C82.8534422,18.5032258 83.3377387,18.3354839 83.3377387,18.0709677 C83.2857043,17.5801919 83.168441,17.098533 82.9890452,16.6387097 L81.5942714,12.4516129 C81.4070101,11.8516129 81.2972362,11.7741935 80.4836181,11.7741935 L76.5575879,11.7741935 C75.9118593,11.7741935 75.724598,11.8516129 75.5308794,12.4193548 L74.4718844,15.6451613 C74.1840807,16.4106332 73.9679131,17.2011114 73.8261558,18.0064516 C73.8261558,18.3290323 73.9617588,18.4967742 74.6074874,18.5483871 L75.6148241,18.6322581 C75.8020854,18.7612903 75.8020854,18.8903226 75.5631658,18.9935484 C74.8593216,18.9419355 74.0198744,18.9419355 72.7477889,18.916129 C71.8502261,18.916129 70.8751759,18.9677419 70.1648744,18.9935484 C70.0034422,18.8903226 69.9453266,18.7612903 70.1132161,18.6322581 L71.0043216,18.5483871 C71.7884358,18.4474548 72.4324838,17.8805776 72.6315578,17.116129 C73.1158543,15.8709677 73.8778141,13.8903226 75.0142965,10.883871 L77.7715578,3.58709677 C78.1525377,2.61290323 78.3139698,2.09677419 78.2300251,1.6516129 C78.831585,1.4538744 79.3734972,1.10771035 79.805603,0.64516129 C79.9670352,0.64516129 79.9541206,0.677419355 80.0122362,0.870967742 C80.3609296,2.05806452 80.8000251,3.30322581 81.2003769,4.49032258 L84.9068593,15.6580645 C85.6946482,17.9806452 86.0433417,18.3870968 87.2121106,18.5225806 L87.9417839,18.6258065 Z M80.9356281,10.3225806 L79.3600503,5.64516129 C79.1736084,5.06693242 78.9580917,4.49846816 78.7143216,3.94193548 L78.656206,3.94193548 C78.5787186,4.07741935 78.3075126,4.72903226 78.0104774,5.53548387 L76.2024372,10.4903226 C75.9828894,11.1354839 76.0087186,11.1354839 76.7706784,11.1354839 L80.3157286,11.1354839 C81.1228894,11.1419355 81.181005,11.0322581 80.9356281,10.3225806 Z M134.143668,2.09677419 C132.852211,1.31612903 131.199146,1.01290323 128.977839,1.01290323 C127.188495,0.974524415 125.398498,1.04778516 123.618291,1.23225806 C123.469774,1.30322581 123.514975,1.41935484 123.618291,1.52903226 L124.567513,1.59354839 C125.781482,1.73548387 125.820226,2.23870968 125.820226,4.50967742 L125.820226,15.1806452 C125.820226,18.0193548 125.762111,18.3419355 124.19299,18.5548387 L123.624749,18.6387097 C123.463317,18.8 123.514975,18.9225806 123.682864,19.0064516 C124.871005,18.9483871 125.846055,18.9225806 126.982538,18.9225806 C128.11902,18.9225806 128.958467,18.9225806 130.501759,19.0064516 C130.663191,18.9225806 130.714849,18.7677419 130.553417,18.6322581 L129.791457,18.5483871 C128.060905,18.3612903 128.002789,18.0129032 128.002789,15.1741935 L128.002789,2.48387097 C128.002789,1.61290323 128.002789,1.50967742 129.468593,1.50967742 C132.28397,1.50967742 133.820804,3.53548387 133.820804,6.16129032 C133.820804,8.51612903 132.774724,10.2903226 129.85603,10.8322581 C129.80297,10.8380204 129.757017,10.8716275 129.735482,10.9204198 C129.713946,10.9692121 129.7201,11.0257769 129.751625,11.0688069 C129.78315,11.1118368 129.835256,11.1347946 129.888317,11.1290323 L129.952889,11.1290323 C131.211547,11.1317954 132.456734,10.870228 133.607714,10.3612903 C135.291271,9.63994094 136.363651,7.96501987 136.313317,6.13548387 C136.354532,4.49574448 135.530708,2.95488192 134.143668,2.07741935 L134.143668,2.09677419 Z M155.568945,15.0774194 C154.865101,16.483871 154.135427,17.8645161 153.631759,18.1290323 C153.037688,18.4322581 152.004523,18.5354839 149.925276,18.5354839 C147.542538,18.5354839 146.974296,18.2387097 146.644975,17.8903226 C146.218794,17.4322581 146.134849,16.5096774 146.134849,15.0774194 L146.134849,10.6645161 C146.134849,9.96129032 146.218794,9.93548387 147.025955,9.93548387 L148.82108,9.93548387 C149.517079,9.89948836 150.214903,9.94495862 150.900327,10.0709677 C151.442739,10.2064516 151.63,10.7870968 151.739774,11.2709677 L151.985151,12.3225806 C152.021898,12.3688485 152.07778,12.395819 152.136897,12.395819 C152.196014,12.395819 152.251896,12.3688485 152.288643,12.3225806 C152.288643,11.7290323 152.178869,10.7032258 152.178869,9.74193548 C152.178869,8.78064516 152.288643,7.65806452 152.288643,7.01290323 C152.256919,6.96135471 152.200692,6.92994926 152.140126,6.92994926 C152.079559,6.92994926 152.023332,6.96135471 151.991608,7.01290323 L151.77206,8.26451613 C151.636457,8.90967742 151.449196,9.10322581 151.126332,9.21290323 C150.36892,9.3555511 149.59747,9.40967837 148.827538,9.37419355 L147.025955,9.37419355 C146.218794,9.37419355 146.134849,9.37419355 146.134849,8.61935484 L146.134849,2.58064516 C146.134849,1.55483871 146.134849,1.49677419 146.948467,1.49677419 L148.885653,1.49677419 C149.799173,1.46525456 150.713641,1.51925362 151.617085,1.65806452 C153.024774,2.01290323 153.263693,3.18064516 153.670503,4.4516129 C153.733034,4.52205346 153.825872,4.55782204 153.919549,4.54756511 C154.013225,4.53730817 154.096107,4.48229959 154.141884,4.4 C154.071219,3.26066495 153.926704,2.12710521 153.709246,1.00645161 C152.529952,1.09847666 151.346528,1.12647484 150.164196,1.09032258 L145.075854,1.09032258 C143.965201,1.09032258 143.041809,1.09032258 141.847211,1.00645161 C141.685779,1.09032258 141.679322,1.24516129 141.795553,1.32258065 L142.228191,1.37419355 C143.823141,1.56129032 143.874799,1.96774194 143.874799,4.78064516 L143.874799,15.1677419 C143.874799,18.0064516 143.739196,18.3935484 142.195905,18.5483871 L141.304799,18.6322581 C141.143367,18.7935484 141.195025,18.9225806 141.362915,19 C142.957864,18.9483871 143.874799,18.9225806 145.043568,18.9225806 L147.477965,18.9225806 C149.886533,18.9225806 152.101382,18.9225806 154.535779,19 C155.045006,17.784577 155.451092,16.5285436 155.749749,15.2451613 C155.749749,15.2451613 155.788492,15.1032258 155.749749,15.0709677 C155.695718,15.0358682 155.62742,15.030994 155.568945,15.0580645 L155.568945,15.0774194 Z M221.975678,1.2 C221.052286,1.2516129 220.348442,1.27741935 219.186131,1.27741935 C218.159422,1.27741935 217.248945,1.27741935 215.996231,1.2 C215.776683,1.27741935 215.867085,1.41935484 215.938116,1.49677419 L216.40304,1.5483871 C217.481407,1.68387097 217.914045,1.8516129 218.075477,2.09032258 C218.59206,2.90322581 218.617889,6.60645161 218.617889,7.89677419 L218.617889,13.7032258 C218.662959,14.0852089 218.625526,14.4724069 218.508116,14.8387097 L218.456457,14.8387097 C217.165,13.5483871 215.873543,12.0258065 213.994472,9.94193548 L211.366357,7 C210.507538,5.9483871 207.278894,2.58064516 206.736482,1.18709677 C206.325647,1.24359575 205.911391,1.27161969 205.496683,1.27096774 C205.00593,1.27096774 203.559497,1.27096774 202.43593,1.18709677 C202.371967,1.20820726 202.325054,1.26309438 202.3142,1.32951781 C202.303346,1.39594123 202.33035,1.46288592 202.384271,1.50322581 L202.842739,1.55483871 C203.456025,1.58965927 204.043056,1.81524226 204.521633,2.2 C204.985029,2.73200901 205.20092,3.43538175 205.115704,4.13548387 L205.115704,12.1354839 C205.115704,13.4258065 205.115704,17.0451613 204.760553,18.0193548 C204.62495,18.316129 204.198769,18.4774194 203.572412,18.5612903 L202.842739,18.6387097 C202.795872,18.6912157 202.774574,18.7617037 202.784532,18.8313494 C202.79449,18.9009952 202.83469,18.9627054 202.894397,19 C203.843618,18.9483871 204.573291,18.9225806 205.709774,18.9225806 C206.710653,18.9225806 207.64696,18.9225806 208.880302,19 C208.940008,18.9627054 208.980209,18.9009952 208.990167,18.8313494 C209.000125,18.7617037 208.978827,18.6912157 208.93196,18.6387097 L208.092513,18.5612903 C207.414497,18.5032258 206.872085,18.3419355 206.710653,18.0451613 C206.252186,17.2322581 206.226357,13.4064516 206.226357,12.1354839 L206.226357,6.24516129 C206.19765,5.6653989 206.24322,5.08434795 206.36196,4.51612903 L206.413618,4.51612903 C206.981859,5.10967742 208.822186,7.32903226 209.551859,8.16774194 L215.828342,15.3032258 C218.185251,17.9806452 218.97304,18.9290323 219.295905,19.3870968 C219.51493,19.4136413 219.725268,19.2928033 219.812487,19.0903226 C219.728543,18.3870968 219.728543,15.1677419 219.728543,14.3612903 L219.728543,7.90967742 C219.728543,6.66451613 219.676884,3.13548387 220.135352,2.16129032 C220.245126,1.9483871 220.78108,1.72903226 221.646357,1.59354839 L222.027337,1.54193548 C222.06608,1.44516129 222.169397,1.32258065 221.975678,1.2 Z M256.845025,18.6193548 L256.16701,18.5354839 C254.57206,18.3483871 254.520402,17.9677419 254.520402,15.1032258 L254.520402,5.00645161 C254.520402,2.14193548 254.57206,1.68387097 256.16701,1.5483871 L256.845025,1.49032258 C256.892592,1.45041021 256.915312,1.38822708 256.904669,1.3270837 C256.894026,1.26594031 256.851627,1.21507226 256.793367,1.19354839 C255.437337,1.2516129 254.520402,1.27096774 253.435578,1.27096774 C252.350754,1.27096774 251.375704,1.27096774 250.026131,1.19354839 C249.864698,1.27096774 249.81304,1.39354839 249.974472,1.50322581 L250.620201,1.55483871 C252.221608,1.69032258 252.273266,2.1483871 252.273266,5.01290323 L252.273266,15.116129 C252.273266,17.9870968 252.221608,18.3419355 250.620201,18.5548387 L249.974472,18.6322581 C249.81304,18.7935484 249.864698,18.9225806 250.026131,19 C251.375704,18.9483871 252.299095,18.9225806 253.435578,18.9225806 C254.57206,18.9225806 255.437337,18.9225806 256.793367,19 C257,18.9225806 257.032286,18.7096774 256.864397,18.6258065 L256.845025,18.6193548 Z M119.827864,9.92258065 C119.884622,12.4355021 118.912706,14.8627698 117.136837,16.6431679 C115.360967,18.4235659 112.934909,19.4029373 110.419598,19.3548387 C104.414322,19.3548387 100.785327,15.0580645 100.785327,10.1870968 C100.731087,7.62552068 101.73151,5.1539687 103.552733,3.35020024 C105.373957,1.54643177 107.856342,0.568554702 110.419598,0.64516129 C116.689623,0.64516129 119.827864,5.16129032 119.827864,9.92258065 Z M117.122261,10.7548387 C117.122261,6.29677419 115.185075,1.48387097 109.980503,1.48387097 C107.165126,1.48387097 103.523216,3.41935484 103.523216,9.32258065 C103.523216,13.3225806 105.460402,18.516129 110.800578,18.516129 C114.042136,18.516129 117.122261,16.083871 117.122261,10.7548387 Z M177.930528,18.7806452 C177.930528,18.9548387 177.665779,18.916129 177.665779,18.916129 L176.755302,18.916129 C174.456508,18.916129 173.074648,18.5290323 171.156834,15.8 C170.472362,14.8387097 169.342337,12.8516129 168.535176,11.6129032 C168.128367,11.0193548 167.695729,10.7483871 166.59799,10.7483871 C165.38402,10.7483871 165.306533,10.7483871 165.306533,11.3419355 L165.306533,15.1483871 C165.306533,17.9870968 165.358191,18.3096774 166.927312,18.5225806 L167.495553,18.6064516 C167.566557,18.6470935 167.605653,18.7268232 167.59428,18.8077888 C167.582906,18.8887543 167.523353,18.9546508 167.443894,18.9741935 C166.223467,18.9225806 165.306533,18.8967742 164.215251,18.8967742 C163.12397,18.8967742 162.103719,18.8967742 160.831633,18.9741935 C160.670201,18.8967742 160.618543,18.8 160.779975,18.6129032 L161.425704,18.5290323 C162.994824,18.3419355 163.05294,17.9935484 163.05294,15.1548387 L163.05294,4.77419355 C163.05294,2.19354839 162.968995,1.74193548 161.858342,1.60645161 L160.999523,1.49677419 C160.941407,1.49677419 160.805804,1.32258065 160.999523,1.21290323 C162.516985,1.07741935 164.383141,0.993548387 167.037085,0.993548387 C168.587314,0.897007327 170.137953,1.1758772 171.557186,1.80645161 C172.98958,2.51409128 173.870308,3.99838165 173.804322,5.59354839 C173.804322,8.17419355 171.776734,9.56774194 170.420704,10.1096774 C170.285101,10.2709677 170.420704,10.5419355 170.556307,10.7548387 C172.719497,14.2451613 174.153015,16.4516129 175.993342,17.9935484 C176.445124,18.3853909 177.01642,18.6127989 177.614121,18.6387097 C177.614121,18.6387097 177.917613,18.6 177.930528,18.7806452 Z M171.402211,6 C171.402211,3.86451613 170.07201,1.48387097 167.069372,1.48387097 C165.390477,1.48387097 165.31299,1.58709677 165.31299,2.3483871 L165.31299,9.12903226 C165.277966,9.4301183 165.304324,9.73517257 165.390477,10.0258065 C165.474422,10.1032258 165.874774,10.1548387 167.256633,10.1548387 C168.237604,10.2321452 169.21703,9.98750395 170.046181,9.45806452 C170.775854,8.88387097 171.402211,7.83870968 171.402211,6 Z M198.671332,18.6258065 C198.858593,18.7612903 198.800477,18.8967742 198.671332,19 C197.560678,18.9483871 196.611457,18.9225806 195.397487,18.9225806 C194.183518,18.9225806 193.066407,18.9806452 192.278618,19 C192.065528,18.8967742 192.039698,18.7741935 192.22696,18.6387097 L193.014749,18.5548387 C193.58299,18.5032258 194.067286,18.3419355 194.067286,18.0709677 C194.015458,17.5794901 193.895945,17.097518 193.712136,16.6387097 L192.323819,12.4516129 C192.136558,11.8516129 192.026784,11.7741935 191.213166,11.7741935 L187.261307,11.7741935 C186.615578,11.7741935 186.421859,11.8516129 186.234598,12.4193548 L185.175603,15.6451613 C184.885953,16.4100349 184.669737,17.2006885 184.529874,18.0064516 C184.529874,18.3290323 184.665477,18.4967742 185.317663,18.5483871 L186.325,18.6322581 C186.512261,18.7612903 186.512261,18.8903226 186.266884,18.9935484 C185.621156,18.9483871 184.788166,18.9419355 183.61294,18.916129 C182.637889,18.916129 181.798442,18.9548387 180.855678,18.9935484 C180.713618,18.8903226 180.66196,18.7548387 180.855678,18.6193548 L181.585352,18.5354839 C181.913537,18.5115153 182.231752,18.4121606 182.515201,18.2451613 C182.887256,17.9555201 183.165733,17.5628525 183.315905,17.116129 C183.806658,15.8709677 184.562161,13.8903226 185.698643,10.883871 L188.462362,3.58709677 C188.776642,2.99108945 188.934388,2.32514073 188.920829,1.6516129 C189.534486,1.45984456 190.088273,1.11319842 190.528693,0.64516129 C190.690126,0.64516129 190.683668,0.677419355 190.741784,0.870967742 C191.090477,2.05806452 191.523116,3.30322581 191.929925,4.49677419 L195.655779,15.6774194 C196.443568,18 196.792261,18.4064516 197.96103,18.5419355 L198.671332,18.6258065 Z M191.665176,10.3225806 L190.089598,5.66451613 C189.903555,5.08614784 189.688031,4.51766354 189.443869,3.96129032 L189.392211,3.96129032 C189.314724,4.09677419 189.043518,4.7483871 188.746482,5.55483871 L186.931985,10.5096774 C186.718894,11.1548387 186.744724,11.1548387 187.500226,11.1548387 L191.051734,11.1548387 C191.852437,11.1354839 191.910553,11.0322581 191.665176,10.3225806 Z" id="Shape" fill-rule="nonzero"></path>
                    </g>
                </g>
                <text id="Vendor-Portal" font-family="HelveticaNeue, Helvetica Neue" font-size="8" font-weight="normal" fill="#454C52">
                    <tspan x="208.552" y="30">Vendor Portal</tspan>
                </text>
            </g>
        </g>
    </g>
</svg>