<svg width="20" height="20" viewBox="0 0 20 20" fill="none" xmlns="http://www.w3.org/2000/svg">
<path fill-rule="evenodd" d="M18 10C18 14.4183 14.4183 18 10 18C5.58172 18 2 14.4183 2 10C2 5.58172 5.58172 2 10 2C14.4183 2 18 5.58172 18 10ZM3 10C3 13.866 6.13401 17 10 17C13.866 17 17 13.866 17 10C17 6.13401 13.866 3 10 3C6.13401 3 3 6.13401 3 10Z" fill="#191A1B"/>
<rect x="9.5" y="5" width="1" height="7" fill="#1E1E1E"/>
<rect x="10" y="13" width="1.25001" height="1.25001" transform="rotate(45 10 13)" fill="#1E1E1E"/>
</svg>
