<svg width="49" height="48" viewBox="0 0 49 48" fill="none" xmlns="http://www.w3.org/2000/svg">
<path fill-rule="evenodd" clip-rule="evenodd" d="M19.2039 7.07995C21.4616 2.84004 27.5381 2.84005 29.7958 7.07996L45.7444 37.0307C47.8725 41.0272 44.9762 45.8508 40.4484 45.8508H8.55125C4.02345 45.8508 1.12716 41.0272 3.25528 37.0307L19.2039 7.07995ZM21.6175 18.9997C21.6175 17.6068 22.7466 16.4777 24.1395 16.4777C25.5324 16.4777 26.6616 17.6068 26.6616 18.9997V30.0813C26.6616 31.4742 25.5324 32.6033 24.1395 32.6033C22.7466 32.6033 21.6175 31.4742 21.6175 30.0813V18.9997ZM26.8057 36.869C26.8057 38.2391 25.6443 39.3498 24.2116 39.3498C22.7789 39.3498 21.6175 38.2391 21.6175 36.869C21.6175 35.4988 22.7789 34.3881 24.2116 34.3881C25.6443 34.3881 26.8057 35.4988 26.8057 36.869Z" fill="#EB982D"/>
<mask id="mask0" style="mask-type:alpha" maskUnits="userSpaceOnUse" x="2" y="3" width="45" height="43">
<path fill-rule="evenodd" clip-rule="evenodd" d="M19.2039 7.07995C21.4616 2.84004 27.5381 2.84005 29.7958 7.07996L45.7444 37.0307C47.8725 41.0272 44.9762 45.8508 40.4484 45.8508H8.55125C4.02345 45.8508 1.12716 41.0272 3.25528 37.0307L19.2039 7.07995ZM21.6175 18.9997C21.6175 17.6068 22.7466 16.4777 24.1395 16.4777C25.5324 16.4777 26.6616 17.6068 26.6616 18.9997V30.0813C26.6616 31.4742 25.5324 32.6033 24.1395 32.6033C22.7466 32.6033 21.6175 31.4742 21.6175 30.0813V18.9997ZM26.8057 36.869C26.8057 38.2391 25.6443 39.3498 24.2116 39.3498C22.7789 39.3498 21.6175 38.2391 21.6175 36.869C21.6175 35.4988 22.7789 34.3881 24.2116 34.3881C25.6443 34.3881 26.8057 35.4988 26.8057 36.869Z" fill="white"/>
</mask>
<g mask="url(#mask0)">
<rect width="49" height="48" fill="#EB982D"/>
</g>
</svg>
